<svg width="117" height="103" viewBox="0 0 117 103" fill="none" xmlns="http://www.w3.org/2000/svg">
<mask id="mask0_9572_294" style="mask-type:luminance" maskUnits="userSpaceOnUse" x="0" y="27" width="117" height="49">
<path d="M117 27.5H0V75.5H117V27.5Z" fill="white"/>
</mask>
<g mask="url(#mask0_9572_294)">
<path d="M0 56.7057V27.5H17.2008V56.6914H0V56.7057ZM15.1168 49.911L15.5593 46.685L13.9605 46.528L13.4752 49.0117C12.4759 49.5113 11.2483 49.754 9.77807 49.754C7.77963 49.754 6.19515 49.1259 5.03891 47.8555C3.8684 46.5851 3.29741 44.9149 3.29741 42.8309C3.29741 40.8039 3.8684 39.1337 4.99609 37.8205C6.12378 36.5072 7.60836 35.8506 9.44978 35.8506C10.3919 35.8506 11.1912 35.9648 11.8336 36.1789C12.476 36.393 13.0612 36.6785 13.6179 37.0497L14.089 39.5049L15.7163 39.3479L15.2452 36.1218C14.5601 35.5366 13.7464 35.0655 12.8043 34.6944C11.8621 34.3375 10.6917 34.1519 9.30703 34.1519C7.66545 34.1519 6.25227 34.5516 5.06749 35.3653C3.8827 36.1789 2.95485 37.2495 2.29822 38.577C1.64159 39.9188 1.31328 41.3606 1.31328 42.9022C1.31328 45.3432 2.06982 47.3844 3.58292 49.0117C5.09602 50.639 7.0659 51.4527 9.50685 51.4527C11.905 51.4527 13.775 50.9388 15.1168 49.911Z" fill="#292F36"/>
<path d="M23.0391 56.7057V27.5H30.4333V56.6914H23.0391V56.7057ZM23.8241 51.1957H29.6624V49.7255H27.6498V33.4239H23.7956V34.8942H25.8369V49.7255H23.8241V51.1957Z" fill="#292F36"/>
<path d="M36.2715 56.7057V27.5H49.2614V56.6914H36.2715V56.7057ZM38.6268 40.5755L38.2129 43.2305L39.7117 43.4161L40.1542 41.4319C40.7966 41.1179 41.5246 40.9609 42.381 40.9609C43.4088 40.9609 44.1083 41.2178 44.4651 41.7317C44.822 42.2456 44.9933 42.9165 44.9933 43.7444V44.7722C44.6793 44.7436 44.3509 44.7151 43.9941 44.7008C43.6372 44.6865 43.2946 44.6723 42.952 44.6723C41.6673 44.6723 40.4397 44.9007 39.2977 45.3574C38.1558 45.8142 37.5848 46.7706 37.5848 48.2124C37.5848 49.44 37.9702 50.2822 38.7553 50.7389C39.5404 51.21 40.3112 51.4384 41.0678 51.4384C41.9956 51.4384 42.795 51.1957 43.4516 50.7104C44.1082 50.2251 44.6222 49.6826 44.9933 49.0545V49.1116C45.0218 50.6676 45.7213 51.4384 47.0917 51.4384C47.6198 51.4384 48.1194 51.3099 48.5905 51.053L48.5619 49.8682C48.3335 49.9681 48.0766 50.0252 47.7911 50.0252C47.1345 50.0252 46.8061 49.6113 46.8061 48.7833V43.3162C46.8061 40.7468 45.4358 39.4621 42.6951 39.4621C41.9385 39.4621 41.2248 39.5477 40.5539 39.719C39.8687 39.9046 39.2263 40.1901 38.6268 40.5755ZM44.979 46.8848C44.9076 47.8269 44.5222 48.5835 43.8228 49.1259C43.1233 49.6826 42.381 49.9538 41.5817 49.9538C41.082 49.9538 40.5967 49.8111 40.14 49.5399C39.6689 49.2687 39.4405 48.7548 39.4405 48.0125C39.4405 47.1132 39.7974 46.5422 40.4825 46.271C41.182 45.9998 41.9528 45.8713 42.8235 45.8713C43.2089 45.8713 43.5801 45.8856 43.9369 45.9284C44.2938 45.957 44.6507 45.9855 44.9647 45.9998V46.8848H44.979Z" fill="#292F36"/>
<path d="M55.1143 56.7057V27.5H66.9193V56.6914H55.1143V56.7057ZM65.6775 47.8698C65.6775 46.9562 65.4348 46.2853 64.9494 45.8428C64.4641 45.4003 63.8789 45.1005 63.1651 44.9292C62.4514 44.7579 61.752 44.6152 61.0525 44.501C60.3531 44.3868 59.7535 44.2012 59.2682 43.9585C58.7829 43.7159 58.5402 43.2876 58.5402 42.6738C58.5402 42.0886 58.7686 41.6603 59.2396 41.3749C59.7107 41.0894 60.2959 40.9609 61.0239 40.9609C61.8661 40.9609 62.6513 41.1465 63.3793 41.5319L63.6648 43.3876L65.1636 43.202L64.8781 40.5184C64.3928 40.2186 63.8075 39.9759 63.1081 39.7761C62.4086 39.5763 61.6663 39.4621 60.8669 39.4621C59.8106 39.4621 58.84 39.719 57.9407 40.2186C57.0414 40.7182 56.5989 41.5747 56.5989 42.8023C56.5989 43.7016 56.8415 44.3582 57.3268 44.7722C57.8122 45.2004 58.4117 45.4859 59.1397 45.6572C59.8677 45.8285 60.5814 45.9712 61.2952 46.0997C62.0089 46.2139 62.6084 46.4138 63.0938 46.6707C63.5791 46.9276 63.8218 47.3702 63.8218 48.0125C63.8218 48.6691 63.5077 49.1545 62.8796 49.4685C62.2515 49.7826 61.5378 49.9396 60.7242 49.9396C59.8106 49.9396 58.9541 49.754 58.169 49.3686L58.2404 47.8412L56.7987 47.6842L56.4418 50.2964C56.9414 50.6247 57.5981 50.896 58.3974 51.1101C59.1968 51.3242 59.9962 51.4384 60.8098 51.4384C62.1945 51.4384 63.3507 51.1244 64.2786 50.482C65.2064 49.8682 65.6775 48.9832 65.6775 47.8698Z" fill="#292F36"/>
<path d="M72.7568 56.7057V27.5H84.5618V56.6914H72.7568V56.7057ZM83.3199 47.8698C83.3199 46.9562 83.0772 46.2853 82.5919 45.8428C82.1066 45.4003 81.5213 45.1005 80.8076 44.9292C80.0939 44.7579 79.3944 44.6152 78.695 44.501C77.9955 44.3868 77.396 44.2012 76.9107 43.9585C76.4253 43.7159 76.1827 43.2876 76.1827 42.6738C76.1827 42.0886 76.411 41.6603 76.8821 41.3749C77.3532 41.0894 77.9384 40.9609 78.6664 40.9609C79.5086 40.9609 80.2937 41.1465 81.0217 41.5319L81.3073 43.3876L82.8061 43.202L82.5206 40.5184C82.0352 40.2186 81.45 39.9759 80.7505 39.7761C80.0511 39.5763 79.3088 39.4621 78.5094 39.4621C77.4531 39.4621 76.4824 39.719 75.5832 40.2186C74.6839 40.7182 74.2413 41.5747 74.2413 42.8023C74.2413 43.7016 74.484 44.3582 74.9694 44.7722C75.4547 45.2004 76.0543 45.4859 76.7823 45.6572C77.5103 45.8285 78.2239 45.9712 78.9376 46.0997C79.6514 46.2139 80.2509 46.4138 80.7362 46.6707C81.2216 46.9276 81.4643 47.3702 81.4643 48.0125C81.4643 48.6691 81.1503 49.1545 80.5222 49.4685C79.8941 49.7826 79.1804 49.9396 78.3667 49.9396C77.4531 49.9396 76.5966 49.754 75.8115 49.3686L75.883 47.8412L74.4412 47.6842L74.0843 50.2964C74.584 50.6247 75.2406 50.896 76.0399 51.1101C76.8393 51.3242 77.6387 51.4384 78.4523 51.4384C79.837 51.4384 80.9932 51.1244 81.9211 50.482C82.8489 49.8682 83.3199 48.9832 83.3199 47.8698Z" fill="#292F36"/>
<path d="M90.4004 56.7057V27.5H98.1801V56.6914H90.4004V56.7057ZM91.5424 51.1957H97.3807V49.7255H95.3679V39.7047H91.4996V41.175H93.5693V49.7255H91.5567V51.1957H91.5424ZM93.3696 34.3803V36.7356H95.3395V34.3803H93.3696Z" fill="#292F36"/>
<path d="M104.019 56.7057V27.5H116.452V56.6914H104.019V56.7057ZM115.338 47.3273L113.782 46.9847C113.44 48.9261 112.398 49.8967 110.685 49.8967C109.543 49.8967 108.672 49.5113 108.073 48.7405C107.473 47.9697 107.173 46.8848 107.173 45.5145C107.173 44.2726 107.444 43.2163 107.973 42.3312C108.501 41.4462 109.386 41.018 110.613 41.018C111.556 41.018 112.383 41.2321 113.069 41.6603L113.511 43.6017L115.01 43.4161L114.567 40.6468C113.982 40.2043 113.368 39.8903 112.726 39.719C112.084 39.5477 111.384 39.4621 110.628 39.4621C108.843 39.4621 107.487 40.0901 106.602 41.3463C105.703 42.6025 105.26 44.0299 105.26 45.6144C105.26 47.4558 105.731 48.8975 106.688 49.911C107.63 50.9388 108.9 51.4527 110.485 51.4527C112.069 51.4527 113.24 51.0102 113.982 50.1394C114.725 49.2544 115.181 48.3265 115.338 47.3273Z" fill="#292F36"/>
<path d="M7.43708 72.6503C7.10877 73.2498 6.62342 73.7209 5.99534 74.0492C5.35298 74.3775 4.59643 74.5488 3.7114 74.5488H1.15625V66.498H3.7114C4.59643 66.498 5.36726 66.655 5.99534 66.9833C6.62342 67.3116 7.10877 67.7684 7.43708 68.3822C7.76539 68.996 7.92241 69.6955 7.92241 70.5234C7.92241 71.3371 7.76539 72.0508 7.43708 72.6503ZM6.02387 72.8073C6.58058 72.2649 6.85182 71.5083 6.85182 70.5234C6.85182 69.5385 6.58058 68.7819 6.02387 68.2395C5.46716 67.697 4.66779 67.4258 3.61147 67.4258H2.16977V73.621H3.61147C4.66779 73.621 5.46716 73.3498 6.02387 72.8073Z" fill="#292F36"/>
<path d="M13.2188 67.3402V70.0952H16.2736V70.8945H13.2188V73.7066H16.6162V74.5488H12.1768V66.498H16.6162V67.3402H13.2188Z" fill="#292F36"/>
<path d="M25.6375 73.5211C25.4519 73.8494 25.1806 74.1207 24.8095 74.3205C24.4384 74.5204 23.9816 74.6346 23.4249 74.6346C22.8967 74.6346 22.4114 74.5346 21.9974 74.3491C21.5835 74.1492 21.2552 73.8923 20.9982 73.5497C20.7556 73.2071 20.6128 72.8217 20.57 72.3934H21.6834C21.7119 72.6218 21.7833 72.8502 21.9118 73.0643C22.0402 73.2785 22.2401 73.464 22.4827 73.6068C22.7254 73.7495 23.0252 73.8209 23.3821 73.8209C23.8388 73.8209 24.1957 73.7067 24.4384 73.4498C24.6811 73.1928 24.8095 72.8931 24.8095 72.5076C24.8095 72.1793 24.7239 71.9081 24.5526 71.7083C24.3813 71.5084 24.1672 71.3371 23.9245 71.2229C23.6818 71.1087 23.325 70.9803 22.8967 70.8375C22.3828 70.6662 21.9832 70.5092 21.6691 70.3665C21.3551 70.2237 21.0981 69.9953 20.884 69.6956C20.6699 69.3958 20.5557 69.0104 20.5557 68.525C20.5557 68.1111 20.6556 67.7399 20.8555 67.4116C21.0553 67.0976 21.3408 66.8407 21.7262 66.6694C22.0973 66.4981 22.5542 66.4124 23.0538 66.4124C23.8389 66.4124 24.4812 66.598 24.938 66.9834C25.409 67.3688 25.666 67.8541 25.7516 68.4537H24.6382C24.5811 68.1396 24.4098 67.8541 24.1529 67.6115C23.8817 67.3688 23.5248 67.2403 23.068 67.2403C22.654 67.2403 22.3115 67.3545 22.0688 67.5687C21.8119 67.7828 21.6977 68.0968 21.6977 68.4822C21.6977 68.7963 21.7833 69.0532 21.9404 69.2388C22.1116 69.4386 22.3115 69.5814 22.5541 69.6956C22.7968 69.8098 23.1394 69.924 23.5533 70.0667C24.0672 70.238 24.4812 70.395 24.8095 70.552C25.1235 70.7091 25.3948 70.9374 25.6089 71.2372C25.823 71.537 25.9372 71.9509 25.9372 72.4648C25.9087 72.836 25.823 73.1928 25.6375 73.5211Z" fill="#292F36"/>
<path d="M31.2042 66.498V74.5488H30.1621V66.498H31.2042Z" fill="#292F36"/>
<path d="M41.7387 67.1119C42.381 67.583 42.8093 68.211 43.0234 69.0104H41.9243C41.7387 68.5251 41.4104 68.1254 40.9679 67.8399C40.5253 67.5401 39.9972 67.3974 39.3834 67.3974C38.841 67.3974 38.3413 67.5259 37.9131 67.7828C37.4848 68.0397 37.1423 68.3966 36.8854 68.8677C36.6427 69.3387 36.5142 69.8954 36.5142 70.5378C36.5142 71.1944 36.6427 71.7654 36.8854 72.2365C37.128 72.7075 37.4849 73.0787 37.9274 73.3356C38.3699 73.5925 38.8838 73.721 39.469 73.721C39.9687 73.721 40.4111 73.6068 40.8251 73.407C41.2391 73.1928 41.5674 72.8788 41.8386 72.4791C42.1098 72.0794 42.2526 71.5941 42.3097 71.0517H39.1407V70.2808H43.1804V71.2372C43.109 71.8796 42.9092 72.4506 42.5809 72.9787C42.2526 73.5069 41.8101 73.9066 41.2534 74.2063C40.6967 74.5061 40.0686 74.6631 39.3548 74.6631C38.584 74.6631 37.8988 74.4918 37.2993 74.1492C36.6998 73.8067 36.243 73.3213 35.9147 72.6932C35.5863 72.0794 35.415 71.3657 35.415 70.5663C35.415 69.767 35.5863 69.0532 35.9147 68.4394C36.243 67.8256 36.714 67.326 37.2993 66.9834C37.8845 66.6408 38.5697 66.4553 39.3405 66.4553C40.3112 66.4267 41.0963 66.6551 41.7387 67.1119Z" fill="#292F36"/>
<path d="M53.7147 74.5488H52.6727L48.4902 68.1824V74.5488H47.4482V66.498H48.4902L52.6727 72.8644V66.498H53.7147V74.5488Z" fill="#292F36"/>
<path d="M68.7322 73.5211C68.5466 73.8494 68.2754 74.1207 67.9042 74.3205C67.5331 74.5204 67.0763 74.6346 66.5196 74.6346C65.9915 74.6346 65.5061 74.5346 65.0922 74.3491C64.6782 74.1492 64.3499 73.8923 64.093 73.5497C63.8503 73.2071 63.7076 72.8217 63.6647 72.3934H64.7781C64.8067 72.6218 64.8781 72.8502 65.0065 73.0643C65.135 73.2785 65.3348 73.464 65.5775 73.6068C65.8201 73.7495 66.1199 73.8209 66.4768 73.8209C66.9336 73.8209 67.2904 73.7067 67.5331 73.4498C67.7757 73.1928 67.9042 72.8931 67.9042 72.5076C67.9042 72.1793 67.8186 71.9081 67.6473 71.7083C67.476 71.5084 67.2619 71.3371 67.0192 71.2229C66.7765 71.1087 66.4197 70.9803 65.9915 70.8375C65.4776 70.6662 65.0779 70.5092 64.7638 70.3665C64.4498 70.2237 64.1929 69.9953 63.9787 69.6956C63.7646 69.3958 63.6504 69.0104 63.6504 68.525C63.6504 68.1111 63.7503 67.7399 63.9502 67.4116C64.15 67.0976 64.4356 66.8407 64.821 66.6694C65.1921 66.4981 65.6489 66.4124 66.1485 66.4124C66.9336 66.4124 67.576 66.598 68.0327 66.9834C68.5038 67.3688 68.7608 67.8541 68.8464 68.4537H67.7329C67.6758 68.1396 67.5045 67.8541 67.2476 67.6115C66.9764 67.3688 66.6196 67.2403 66.1628 67.2403C65.7488 67.2403 65.4062 67.3545 65.1635 67.5687C64.9066 67.7828 64.7924 68.0968 64.7924 68.4822C64.7924 68.7963 64.878 69.0532 65.035 69.2388C65.2063 69.4386 65.4062 69.5814 65.6488 69.6956C65.8915 69.8098 66.2341 69.924 66.6481 70.0667C67.1619 70.238 67.5759 70.395 67.9042 70.552C68.2183 70.7091 68.4895 70.9374 68.7036 71.2372C68.9177 71.537 69.0319 71.9509 69.0319 72.4648C69.0033 72.836 68.9177 73.1928 68.7322 73.5211Z" fill="#292F36"/>
<path d="M78.1963 66.498V67.3402H75.9266V74.5488H74.8703V67.3402H72.6006V66.498H78.1963Z" fill="#292F36"/>
<path d="M83.0495 66.498V71.3228C83.0495 72.1079 83.2208 72.6931 83.5777 73.0785C83.9345 73.4497 84.4056 73.6495 85.0337 73.6495C85.6475 73.6495 86.1186 73.464 86.4612 73.0785C86.8037 72.6931 86.975 72.1222 86.975 71.3371V66.5123H88.0171V71.3371C88.0171 72.4362 87.7459 73.2641 87.2035 73.8065C86.661 74.3633 85.933 74.6345 85.0194 74.6345C84.1201 74.6345 83.3922 74.3633 82.8497 73.8065C82.3073 73.2498 82.0361 72.4362 82.0361 71.3371V66.5123H83.0495V66.498Z" fill="#292F36"/>
<path d="M98.7661 72.6503C98.4378 73.2498 97.9523 73.7209 97.3243 74.0492C96.6819 74.3775 95.9255 74.5488 95.0405 74.5488H92.4854V66.498H95.0405C95.9255 66.498 96.6962 66.655 97.3243 66.9833C97.9523 67.3116 98.4378 67.7684 98.7661 68.3822C99.0944 68.996 99.2514 69.6955 99.2514 70.5234C99.2514 71.3371 99.0944 72.0508 98.7661 72.6503ZM97.3671 72.8073C97.9238 72.2649 98.1952 71.5083 98.1952 70.5234C98.1952 69.5385 97.9238 68.7819 97.3671 68.2395C96.8104 67.697 96.0111 67.4258 94.9548 67.4258H93.5131V73.621H94.9548C95.9969 73.621 96.8104 73.3498 97.3671 72.8073Z" fill="#292F36"/>
<path d="M104.561 66.498V74.5488H103.519V66.498H104.561Z" fill="#292F36"/>
<path d="M114.782 66.9264C115.381 67.2833 115.852 67.7686 116.195 68.3967C116.537 69.0247 116.709 69.7385 116.709 70.5236C116.709 71.3087 116.537 72.0224 116.195 72.6505C115.852 73.2786 115.381 73.7639 114.782 74.1208C114.182 74.4776 113.511 74.6489 112.769 74.6489C112.027 74.6489 111.341 74.4776 110.742 74.1208C110.142 73.7639 109.657 73.2786 109.314 72.6505C108.972 72.0224 108.801 71.3087 108.801 70.5236C108.801 69.7385 108.972 69.0247 109.314 68.3967C109.657 67.7686 110.128 67.2833 110.742 66.9264C111.356 66.5695 112.027 66.3982 112.769 66.3982C113.511 66.3982 114.182 66.5695 114.782 66.9264ZM111.27 67.7543C110.827 68.0113 110.485 68.3681 110.242 68.8534C110 69.3245 109.871 69.8812 109.871 70.5236C109.871 71.1517 110 71.7084 110.242 72.1937C110.485 72.679 110.827 73.0359 111.27 73.2928C111.713 73.5498 112.198 73.6782 112.755 73.6782C113.297 73.6782 113.797 73.5498 114.239 73.2928C114.682 73.0359 115.024 72.6648 115.267 72.1937C115.51 71.7226 115.638 71.1659 115.638 70.5378C115.638 69.8955 115.51 69.3388 115.267 68.8677C115.024 68.3967 114.682 68.0255 114.239 67.7686C113.797 67.5116 113.311 67.3832 112.755 67.3832C112.212 67.3689 111.713 67.4974 111.27 67.7543Z" fill="#292F36"/>
</g>
</svg>
