<svg width="132" height="103" viewBox="0 0 132 103" fill="none" xmlns="http://www.w3.org/2000/svg">
<mask id="mask0_9572_348" style="mask-type:luminance" maskUnits="userSpaceOnUse" x="0" y="30" width="132" height="43">
<path d="M132 30H0V73H132V30Z" fill="white"/>
</mask>
<g mask="url(#mask0_9572_348)">
<path d="M11.6337 30V30.1856L10.8629 30.3711V38.5933L11.6337 38.7788V38.9644H7.97946V38.7788L8.7503 38.5933V31.5845L5.7241 39.0929H5.33866L1.41317 31.5845V38.3934L2.44093 38.7788V38.9644H0V38.7788L1.02777 38.3934V30.3711L0.256931 30.1856V30H1.85567C2.09834 30 2.31246 30.0285 2.48376 30.0856C2.65505 30.1427 2.82637 30.2141 2.95484 30.314C3.09758 30.414 3.21178 30.5282 3.3117 30.6566C3.41162 30.7851 3.49728 30.9421 3.58292 31.0991L6.38072 36.4521L8.5219 31.0991C8.59327 30.9136 8.66466 30.7566 8.76459 30.6281C8.85023 30.4996 8.9644 30.3854 9.09287 30.2855C9.22134 30.1856 9.37839 30.1142 9.56396 30.0714C9.74953 30.0285 9.9779 30 10.2634 30H11.6337Z" fill="#292F36"/>
<path d="M16.202 32.3838C16.7302 32.3838 17.2155 32.4552 17.6295 32.6122C18.0435 32.7692 18.4003 32.9976 18.7001 33.2831C18.9999 33.5828 19.214 33.9397 19.371 34.3537C19.528 34.7676 19.5994 35.253 19.5994 35.7811C19.5994 36.3093 19.528 36.7946 19.371 37.2086C19.214 37.6225 18.9856 37.9794 18.7001 38.2792C18.4003 38.5789 18.0435 38.7931 17.6295 38.9501C17.2155 39.1071 16.7302 39.1785 16.202 39.1785C15.6739 39.1785 15.1886 39.1071 14.7746 38.9501C14.3606 38.7931 14.0038 38.5647 13.704 38.2792C13.4042 37.9794 13.1901 37.6225 13.0331 37.2086C12.8761 36.7946 12.8047 36.3093 12.8047 35.7811C12.8047 35.253 12.8761 34.7676 13.0331 34.3537C13.1901 33.9397 13.4185 33.5828 13.704 33.2831C14.0038 32.9833 14.3606 32.7692 14.7746 32.6122C15.1886 32.4552 15.6596 32.3838 16.202 32.3838ZM16.202 38.9358C16.3448 38.9358 16.4875 38.893 16.6446 38.7931C16.7873 38.6931 16.9158 38.5361 17.0299 38.2934C17.1441 38.0508 17.2441 37.7367 17.3155 37.337C17.3868 36.9231 17.4296 36.4092 17.4296 35.7954C17.4296 35.1673 17.3868 34.6534 17.3155 34.2537C17.2441 33.8541 17.1441 33.5257 17.0299 33.2974C16.9158 33.069 16.7873 32.8977 16.6446 32.7977C16.5018 32.6978 16.3591 32.655 16.202 32.655C16.0593 32.655 15.9166 32.6978 15.7595 32.7977C15.6168 32.8977 15.4883 33.0547 15.3741 33.2974C15.2599 33.54 15.16 33.8541 15.0886 34.2537C15.0173 34.6677 14.9744 35.1816 14.9744 35.7954C14.9744 36.4235 15.0173 36.9374 15.0886 37.337C15.16 37.7367 15.2599 38.0651 15.3741 38.2934C15.4883 38.5218 15.6168 38.6931 15.7595 38.7931C15.9023 38.8787 16.045 38.9358 16.202 38.9358Z" fill="#292F36"/>
<path d="M25.8369 30C26.6078 30 26.9932 30.3854 26.9932 31.1562V38.6075L27.764 38.7931V38.9787H26.6078C26.2937 38.9787 26.051 38.9359 25.8655 38.8359C25.6799 38.736 25.5229 38.6218 25.423 38.5076C25.2945 38.3649 25.1946 38.1936 25.1375 38.0223C25.0233 38.2507 24.8805 38.4362 24.7092 38.6075C24.5665 38.7503 24.3666 38.8788 24.124 39.0072C23.8813 39.1357 23.5958 39.1928 23.2675 39.1928C22.8964 39.1928 22.5538 39.1214 22.2397 38.9787C21.9114 38.8359 21.6402 38.6218 21.4118 38.3363C21.1834 38.0508 20.9836 37.694 20.8551 37.28C20.7124 36.8518 20.6553 36.3664 20.6553 35.7955C20.6553 35.2245 20.7267 34.7392 20.8551 34.3109C20.9979 33.8827 21.1834 33.5401 21.4404 33.2546C21.683 32.9691 21.9828 32.755 22.3254 32.6122C22.668 32.4695 23.0534 32.3981 23.4816 32.3981C23.71 32.3981 23.9099 32.4267 24.0954 32.4695C24.281 32.5266 24.438 32.5837 24.5665 32.6551C24.7235 32.7264 24.852 32.8121 24.9662 32.912V30.414L24.1954 30.2284V30.0428H25.8369V30ZM24.9376 33.2831C24.8377 33.1832 24.7521 33.0976 24.6379 33.0262C24.538 32.9548 24.438 32.8977 24.3238 32.8406C24.2096 32.7835 24.0954 32.7693 23.967 32.7693C23.81 32.7693 23.6529 32.8121 23.5102 32.8977C23.3674 32.9834 23.2532 33.1261 23.139 33.3402C23.0391 33.5544 22.9535 33.8684 22.8964 34.2538C22.8393 34.6535 22.8107 35.1531 22.8107 35.7812C22.8107 36.395 22.8393 36.8803 22.8964 37.2657C22.9535 37.6511 23.0249 37.9509 23.1248 38.165C23.2104 38.3791 23.3104 38.5362 23.4388 38.6075C23.553 38.6789 23.6672 38.7217 23.7814 38.7217C23.9812 38.7217 24.1525 38.6646 24.2953 38.5647C24.438 38.4648 24.5522 38.3363 24.6521 38.2079C24.7663 38.0508 24.8663 37.8795 24.9519 37.694V33.2831H24.9376Z" fill="#292F36"/>
<path d="M32.0605 39.1929C30.9614 39.1929 30.1049 38.8931 29.5054 38.2936C28.8916 37.694 28.5918 36.8519 28.5918 35.7955C28.5918 35.2674 28.6632 34.782 28.8202 34.3681C28.9772 33.9541 29.1913 33.5973 29.4626 33.2975C29.7338 32.9977 30.0621 32.7836 30.4618 32.6266C30.8472 32.4696 31.2754 32.3982 31.7465 32.3982C32.2318 32.3982 32.6601 32.4696 33.0312 32.598C33.4166 32.7408 33.7306 32.9264 34.0019 33.1547C34.2731 33.3831 34.4729 33.6544 34.6157 33.9684C34.7584 34.2824 34.8298 34.6108 34.8298 34.9676C34.8298 35.0818 34.8298 35.196 34.8155 35.2817C34.8012 35.3673 34.787 35.4529 34.7727 35.5243C34.7441 35.61 34.7298 35.6813 34.7013 35.7384C34.3302 35.8098 33.9305 35.8812 33.5022 35.924C33.1454 35.9811 32.7314 36.0239 32.2604 36.0525C31.7893 36.081 31.304 36.1096 30.7901 36.1096C30.7901 36.6377 30.8329 37.0802 30.9043 37.4371C30.9756 37.794 31.0898 38.0795 31.2183 38.2793C31.3611 38.4934 31.5181 38.6362 31.7036 38.7218C31.8892 38.8075 32.1034 38.8503 32.3175 38.8503C32.5744 38.8503 32.8171 38.8075 33.0454 38.7075C33.2738 38.6076 33.4737 38.4934 33.6307 38.3364C33.802 38.1794 33.9305 37.9938 34.0304 37.794C34.1303 37.5941 34.1731 37.3943 34.1731 37.1802H34.4872C34.4872 37.4371 34.4301 37.6798 34.3159 37.9224C34.2017 38.1651 34.0304 38.3792 33.8163 38.5648C33.6022 38.7504 33.3452 38.8931 33.0454 39.0073C32.76 39.1358 32.4316 39.1929 32.0605 39.1929ZM30.7758 35.7813C31.0613 35.7813 31.3182 35.7813 31.5466 35.767C31.775 35.7527 31.9606 35.7384 32.1176 35.7242C32.3032 35.7099 32.4459 35.6813 32.5744 35.6671C32.5887 35.5814 32.6172 35.4815 32.6315 35.3816C32.6458 35.2817 32.6601 35.1817 32.6743 35.0675C32.6886 34.9533 32.6886 34.8249 32.6886 34.6964C32.6886 34.311 32.66 33.9827 32.6029 33.7257C32.5458 33.4688 32.4745 33.2547 32.3745 33.0834C32.2889 32.9264 32.189 32.7979 32.0605 32.7408C31.932 32.6837 31.8321 32.6409 31.7179 32.6409C31.6037 32.6409 31.4895 32.6837 31.3753 32.7693C31.2612 32.855 31.1612 33.012 31.0613 33.2261C30.9757 33.4545 30.89 33.7686 30.8329 34.1825C30.7758 34.5965 30.7758 35.1246 30.7758 35.7813Z" fill="#292F36"/>
<path d="M40.2255 32.8265C39.9686 32.8265 39.7402 32.8836 39.5403 32.9835C39.3405 33.0834 39.1692 33.2119 39.0264 33.3404C38.8694 33.4974 38.7409 33.6687 38.6125 33.8543V38.6077L39.3833 38.7932V38.9788H35.7861V38.7932L36.557 38.6077V32.955L35.7861 32.7694V32.5838H36.9424C37.2421 32.5838 37.4848 32.6409 37.6846 32.7408C37.8702 32.8408 38.0272 32.955 38.1414 33.0692C38.2699 33.2119 38.3698 33.3689 38.4269 33.5402C38.5554 33.3547 38.7124 33.1834 38.898 33.0263C39.055 32.8979 39.2549 32.7837 39.4975 32.6695C39.7402 32.5553 40.0114 32.5125 40.3397 32.5125C40.7965 32.5125 41.1391 32.6266 41.3675 32.8265C41.5959 33.0406 41.6958 33.3404 41.6958 33.7258C41.6958 34.0113 41.6101 34.2539 41.4388 34.4252C41.2675 34.5965 41.0249 34.6822 40.7394 34.6822C40.668 34.6822 40.6109 34.6822 40.5395 34.6822C40.4682 34.6822 40.4254 34.6679 40.3825 34.6679C40.3254 34.6536 40.2683 34.6536 40.2255 34.6251V32.8265Z" fill="#292F36"/>
<path d="M47.2199 34.4965C47.2199 34.211 47.1913 33.9541 47.1342 33.74C47.0771 33.5259 47.0058 33.3546 46.9059 33.2261C46.8202 33.0834 46.7203 32.9834 46.5918 32.9263C46.4776 32.8692 46.3634 32.8264 46.2492 32.8264C46.0494 32.8264 45.8781 32.8835 45.7353 32.9834C45.5926 33.0834 45.4641 33.2118 45.3785 33.3403C45.2643 33.4973 45.1786 33.6686 45.093 33.8542V38.6076L45.8638 38.7932V38.9787H42.2666V38.7932L43.0374 38.6076V32.9549L42.2666 32.7693V32.5837H43.4229C43.7226 32.5837 43.9653 32.6408 44.1651 32.7408C44.3507 32.8407 44.5077 32.9549 44.6219 33.0691C44.7504 33.2118 44.8503 33.3688 44.9074 33.5401C45.0216 33.326 45.1644 33.1262 45.3357 32.9549C45.4784 32.8121 45.6782 32.6837 45.9066 32.5552C46.135 32.4267 46.4348 32.3696 46.7774 32.3696C47.1485 32.3696 47.4911 32.4267 47.7909 32.5552C48.1049 32.6694 48.3618 32.8407 48.576 33.0263C48.7901 33.2261 48.9614 33.4402 49.0899 33.6972C49.2183 33.9541 49.2754 34.211 49.2754 34.4823V38.5933L50.0462 38.7789V38.9645H48.3761C47.6053 38.9645 47.2199 38.579 47.2199 37.8082V34.4965Z" fill="#292F36"/>
<path d="M1.35645 48.0001V47.4719H11.2772V48.0001L9.19315 48.5283V59.3055H16.673V48.5283L14.5889 48.0001V47.4719H24.5098V48.0001L22.4256 48.5283V70.7965L24.5098 71.3247V71.8529H14.5889V71.3104L16.673 70.7823V60.1763H9.19315V70.7823L11.2772 71.3104V71.8386H1.35645V71.3104L3.44052 70.7823V48.514L1.35645 48.0001Z" fill="#292F36"/>
<path d="M36.8424 53.9099C38.2842 53.9099 39.5689 54.124 40.7108 54.5379C41.8528 54.9519 42.8092 55.5657 43.6085 56.3651C44.4079 57.1644 45.0217 58.1351 45.4357 59.2771C45.8496 60.419 46.0638 61.7037 46.0638 63.1455C46.0638 64.5872 45.8496 65.8719 45.4357 67.0139C45.0217 68.1558 44.4079 69.1122 43.6085 69.9116C42.8092 70.711 41.8385 71.3248 40.7108 71.7387C39.5689 72.1527 38.2842 72.3668 36.8424 72.3668C35.4007 72.3668 34.116 72.1527 32.974 71.7387C31.8321 71.3248 30.8757 70.711 30.0763 69.9116C29.2769 69.1122 28.6631 68.1416 28.2492 67.0139C27.8352 65.8719 27.6211 64.5872 27.6211 63.1455C27.6211 61.7037 27.8352 60.419 28.2492 59.2771C28.6631 58.1351 29.2769 57.1787 30.0763 56.3651C30.8757 55.5514 31.8464 54.9519 32.974 54.5379C34.116 54.124 35.4007 53.9099 36.8424 53.9099ZM36.8424 71.6531C37.2421 71.6531 37.6276 71.5246 38.0272 71.2677C38.4269 71.0107 38.7695 70.5682 39.0835 69.9259C39.3976 69.2835 39.6545 68.4128 39.8544 67.3136C40.0542 66.2145 40.1541 64.8156 40.1541 63.1169C40.1541 61.4183 40.0542 60.0193 39.8544 58.9202C39.6545 57.8211 39.3976 56.9503 39.0835 56.308C38.7695 55.6656 38.4127 55.2231 38.0272 54.9662C37.6418 54.7092 37.2421 54.5808 36.8424 54.5808C36.4427 54.5808 36.0574 54.7092 35.6577 54.9662C35.258 55.2231 34.9154 55.6656 34.6013 56.308C34.2873 56.9503 34.0304 57.8211 33.8305 58.9202C33.6307 60.0193 33.5307 61.4183 33.5307 63.1169C33.5307 64.8156 33.6307 66.2145 33.8305 67.3136C34.0304 68.4128 34.2873 69.2835 34.6013 69.9259C34.9154 70.5682 35.2723 71.0107 35.6577 71.2677C36.0574 71.5246 36.4427 71.6531 36.8424 71.6531Z" fill="#292F36"/>
<path d="M72.1433 59.6482C72.1433 58.8203 72.0719 58.1065 71.9292 57.5498C71.7864 56.9931 71.6151 56.5221 71.3867 56.1652C71.1584 55.8084 70.9157 55.5514 70.6587 55.3801C70.3875 55.2231 70.1306 55.1374 69.8736 55.1374C69.4311 55.1374 69.0457 55.2802 68.7031 55.5657C68.3605 55.8512 68.0751 56.1795 67.8181 56.5221C67.5469 56.936 67.2899 57.4071 67.0901 57.9067V70.7823L69.1885 71.3105V71.8387H59.4532V71.3105L61.5373 70.7823V59.6482C61.5373 58.8203 61.4659 58.1065 61.3232 57.5498C61.1804 56.9931 61.0091 56.5221 60.7807 56.1652C60.5523 55.8084 60.3097 55.5514 60.0528 55.3801C59.7815 55.2231 59.5246 55.1374 59.2676 55.1374C58.8251 55.1374 58.4397 55.2802 58.0972 55.5657C57.7546 55.8512 57.469 56.1795 57.2121 56.5221C56.9266 56.936 56.684 57.4071 56.4841 57.9067V70.7823L58.5682 71.3105V71.8387H48.833V71.3105L50.9171 70.7823V55.48L48.833 54.9519V54.4237H51.9591C52.7727 54.4237 53.4436 54.5665 53.9575 54.8377C54.4857 55.1089 54.8854 55.4229 55.1994 55.737C55.542 56.1367 55.7989 56.5649 55.9702 57.0217C56.27 56.4364 56.6411 55.9225 57.0836 55.4515C57.4833 55.0518 57.9687 54.6949 58.5397 54.3666C59.1249 54.0383 59.8244 53.8813 60.6666 53.8813C62.0512 53.8813 63.2645 54.1953 64.2637 54.8091C65.2772 55.4229 66.0481 56.2223 66.5762 57.193C66.876 56.5934 67.2471 56.051 67.6896 55.5514C68.0893 55.1374 68.5746 54.752 69.1456 54.4094C69.7309 54.0669 70.4303 53.8813 71.2725 53.8813C72.2289 53.8813 73.0854 54.0383 73.8848 54.3381C74.6699 54.6378 75.3551 55.0518 75.926 55.58C76.497 56.1081 76.9395 56.7076 77.2536 57.4071C77.5676 58.1066 77.7246 58.8488 77.7246 59.6339V70.7681L79.8087 71.2962V71.8244H75.2837C73.1996 71.8244 72.1575 70.7823 72.1575 68.6983V59.6482H72.1433Z" fill="#292F36"/>
<path d="M91.2862 72.3524C88.3171 72.3524 86.0046 71.5388 84.3631 69.8972C82.7215 68.2556 81.8936 66.0145 81.8936 63.1311C81.8936 61.6894 82.1077 60.4047 82.5216 59.2627C82.9356 58.1207 83.5209 57.1643 84.2631 56.3507C85.0054 55.5513 85.9047 54.9375 86.9611 54.5235C88.0174 54.1096 89.1736 53.8955 90.4155 53.8955C91.7144 53.8955 92.885 54.081 93.9127 54.4522C94.9405 54.8233 95.8255 55.3229 96.5393 55.951C97.253 56.5791 97.8097 57.3214 98.1951 58.1636C98.5805 59.0057 98.7661 59.905 98.7661 60.8614C98.7661 61.1898 98.7518 61.4752 98.709 61.7179C98.6661 61.9606 98.6376 62.1747 98.5805 62.3603C98.5091 62.5887 98.452 62.7885 98.4092 62.9455C97.3814 63.1596 96.3109 63.3309 95.1689 63.4737C94.1982 63.6164 93.0705 63.7306 91.8001 63.8448C90.5297 63.9447 89.1879 64.0018 87.8032 64.0018C87.8032 65.4436 87.9032 66.6426 88.1173 67.599C88.3314 68.5554 88.6169 69.3262 88.988 69.8972C89.3592 70.4682 89.8017 70.8679 90.3155 71.1106C90.8294 71.3532 91.3861 71.4817 91.9857 71.4817C92.6851 71.4817 93.3418 71.3532 93.9556 71.0963C94.5694 70.8393 95.0975 70.4968 95.5543 70.0685C96.0111 69.6403 96.368 69.1549 96.6392 68.6125C96.9104 68.0701 97.0389 67.5134 97.0389 66.9567H97.9096C97.9096 67.6561 97.7526 68.327 97.4386 68.9694C97.1245 69.626 96.682 70.197 96.0967 70.6966C95.5115 71.1962 94.8263 71.5959 94.0127 71.8957C93.1848 72.1954 92.2712 72.3524 91.2862 72.3524ZM87.8032 63.1311C88.5883 63.1311 89.2878 63.1168 89.8873 63.074C90.4868 63.0312 91.0007 63.0026 91.4147 62.9598C91.9 62.917 92.314 62.8599 92.6709 62.7885C92.7137 62.5601 92.7708 62.3032 92.8422 62.0177C92.885 61.7607 92.9278 61.4752 92.9563 61.1612C92.9849 60.8472 93.0134 60.5188 93.0134 60.1763C93.0134 59.1342 92.9278 58.2635 92.7708 57.5497C92.6137 56.836 92.3996 56.265 92.157 55.8225C91.9143 55.38 91.6288 55.066 91.3291 54.8804C91.015 54.6948 90.7009 54.5949 90.4012 54.5949C90.1014 54.5949 89.7874 54.7091 89.4733 54.9232C89.1593 55.1516 88.8881 55.5656 88.6454 56.1794C88.4028 56.7932 88.2029 57.6639 88.0316 58.7774C87.8889 59.8908 87.8032 61.3468 87.8032 63.1311Z" fill="#292F36"/>
<path d="M115.852 71.4818V57.3643L103.376 47.4863V71.4818H115.852Z" fill="#292F36"/>
<path d="M131.283 71.4818V57.3643L119.007 47.4863V71.4818H131.283Z" fill="#292F36"/>
</g>
</svg>
