<svg width="164" height="103" viewBox="0 0 164 103" fill="none" xmlns="http://www.w3.org/2000/svg">
<mask id="mask0_9572_365" style="mask-type:luminance" maskUnits="userSpaceOnUse" x="0" y="30" width="164" height="43">
<path d="M164 30H0V73H164V30Z" fill="white"/>
</mask>
<g mask="url(#mask0_9572_365)">
<path d="M21.6848 48.2341H18.2584V43.5848H21.6243C23.4767 43.5848 24.409 44.3597 24.409 45.9094C24.409 47.4592 23.5009 48.2341 21.6848 48.2341Z" fill="#292F36"/>
<path d="M24.1305 52.5686C24.639 53.0045 24.8933 53.6098 24.8933 54.3847C24.8933 55.9708 23.9247 56.7578 21.9996 56.7699H18.2705V51.9148H21.9633C22.8955 51.9148 23.622 52.1327 24.1305 52.5686Z" fill="#292F36"/>
<path fill-rule="evenodd" clip-rule="evenodd" d="M7.97888 72.776H34.7971C39.2043 72.776 42.776 69.2043 42.776 64.7971V37.9789C42.776 33.5717 39.2043 30 34.7971 30H7.97888C3.57173 30 0 33.5717 0 37.9789V64.7971C0 69.2043 3.57173 72.776 7.97888 72.776ZM30.2448 55.1112C30.2448 53.852 29.8574 52.7381 29.0946 51.7816C28.3318 50.8251 27.3027 50.1955 25.983 49.8807C27.109 49.6143 28.0171 49.0574 28.7072 48.1856C29.3973 47.3139 29.7484 46.2363 29.7484 44.9287C29.7484 43.161 29.1431 41.7928 27.9444 40.8363C26.7458 39.8798 25.0507 39.3955 22.8471 39.3955H13.04V61.0076H23.0893C25.3897 61.0076 27.1574 60.4748 28.3924 59.4457C29.6273 58.4165 30.2448 56.9636 30.2448 55.1112Z" fill="#292F36"/>
<path d="M67.5603 61.0076L62.8867 52.847H61.7002V61.0076H56.4697V39.3955H65.393C67.1002 39.3955 68.5531 39.6861 69.7275 40.2794C70.9141 40.8727 71.7979 41.6839 72.3912 42.713C72.9844 43.7422 73.275 44.9166 73.275 46.2484C73.275 47.8224 72.8391 49.1542 71.9795 50.256C71.1078 51.3578 69.8607 52.1085 68.202 52.5202L73.3356 61.0197H67.5603V61.0076ZM61.7002 49.2753H64.9329C65.9742 49.2753 66.7369 49.0453 67.2212 48.5852C67.7056 48.1251 67.9598 47.4471 67.9598 46.5511C67.9598 45.6915 67.7055 45.0256 67.2091 44.5292C66.7127 44.0448 65.9499 43.7906 64.9329 43.7906H61.7002V49.2753Z" fill="#292F36"/>
<path d="M96.933 57.0725H88.833L87.4891 61.0195H81.9922L89.9106 39.5649H95.928L103.847 61.0195H98.289L96.933 57.0725ZM95.589 53.0891L92.9012 45.1465L90.177 53.0891H95.589Z" fill="#292F36"/>
<path d="M132.699 61.0076H127.468L118.727 47.7377V61.0076H113.496V39.3955H118.727L127.468 52.7865V39.3955H132.699V61.0076Z" fill="#292F36"/>
<path d="M162.023 55.8011C161.115 57.4357 159.808 58.7191 158.113 59.6392C156.405 60.5594 154.408 61.0195 152.107 61.0195H143.947V39.4075H152.107C154.432 39.4075 156.442 39.8555 158.125 40.7514C159.82 41.6474 161.115 42.9066 162.023 44.5411C162.931 46.1756 163.379 48.0402 163.379 50.1711C163.379 52.2778 162.919 54.1545 162.023 55.8011ZM156.393 54.7114C157.519 53.6339 158.088 52.1083 158.088 50.159C158.088 48.1976 157.519 46.6841 156.393 45.6066C155.267 44.529 153.681 43.9842 151.635 43.9842H149.165V56.3339H151.635C153.681 56.3339 155.267 55.8011 156.393 54.7114Z" fill="#292F36"/>
</g>
</svg>
