<svg width="145" height="103" viewBox="0 0 145 103" fill="none" xmlns="http://www.w3.org/2000/svg">
<mask id="mask0_9572_376" style="mask-type:luminance" maskUnits="userSpaceOnUse" x="0" y="29" width="145" height="45">
<path d="M145 29H0V74H145V29Z" fill="white"/>
</mask>
<g mask="url(#mask0_9572_376)">
<path d="M20.2411 37.8289L21.3116 37.6005C21.5829 37.6005 21.8113 37.6576 21.9683 37.7718C22.1253 37.886 22.211 38.0002 22.211 38.1001C22.211 38.2 22.1824 38.357 22.1396 38.5426C22.0968 38.7282 21.6971 40.6409 20.9548 44.2524C20.2125 47.8638 19.6701 50.5617 19.3275 52.3318C20.9833 50.0764 22.9247 47.3071 25.1372 44.0097C27.3498 40.7123 28.6488 38.5283 29.0199 37.4435C29.1341 37.1009 29.2911 36.8439 29.4767 36.6584C29.6623 36.4728 29.8336 36.3586 29.9763 36.33C30.119 36.3015 30.3474 36.2729 30.6472 36.2729C30.947 36.2729 31.3038 36.3443 31.7178 36.4728C32.1318 36.6013 32.3459 36.8154 32.3459 37.1294C32.3459 37.7004 31.4894 39.3705 29.7907 42.1112C28.0921 44.8519 26.1365 47.7639 23.9382 50.8472C21.7399 53.9305 19.9128 56.3715 18.4425 58.17C18.1855 58.4841 17.8572 58.6554 17.4861 58.6554C17.1149 58.6554 16.7153 58.584 16.3013 58.4555C15.8873 58.3271 15.6732 58.0987 15.6732 57.7561C15.6732 56.6855 16.6153 51.5181 18.4996 42.2825C16.8865 44.3666 14.9309 47.2786 12.6327 51.0042C10.2346 54.8584 8.8785 57.2565 8.56446 58.17C8.39317 58.7268 8.19333 59.0551 7.96493 59.1407C7.80791 59.2121 7.63661 59.2406 7.46532 59.2406L6.30908 59.3691C6.08069 59.3691 5.88084 59.312 5.681 59.1835C5.49543 59.0551 5.39551 58.9266 5.39551 58.7839C5.39551 58.3984 5.93795 57.2279 7.00854 55.2866C8.07913 53.3453 9.34956 51.2326 10.7913 48.9487C12.2331 46.6648 13.7319 44.4522 15.3021 42.2968C16.8723 40.1413 18.0856 38.6853 18.9421 37.9573C19.1134 37.8003 19.3132 37.7289 19.5416 37.7289L20.2411 37.8289Z" fill="#292F36"/>
<path d="M37.3995 47.5072C38.1418 47.5072 38.5129 47.7642 38.5129 48.2638C38.5129 48.535 38.4558 48.7348 38.3274 48.8633C38.1989 48.9918 37.9277 49.4057 37.5137 50.1337C37.0998 50.8475 36.643 51.761 36.1434 52.8887C35.6437 54.0021 35.3154 54.9585 35.1727 55.7436C35.1442 55.8435 35.1299 55.972 35.1299 56.1576C35.1299 56.7 35.2726 56.957 35.5724 56.957C35.8722 56.957 36.2147 56.8142 36.6144 56.543C37.0141 56.2575 37.371 55.972 37.685 55.6437C37.999 55.3297 38.2988 55.0013 38.5986 54.673C38.8983 54.3447 39.0697 54.1449 39.1268 54.1021C39.1839 54.0592 39.2695 54.0307 39.3837 54.0307C39.5693 54.0307 39.6835 54.1734 39.7263 54.4589C39.7691 54.7444 39.7834 55.0299 39.7834 55.3439C39.7834 55.658 39.7548 55.8578 39.6977 55.972C39.4122 56.5287 38.7984 57.1996 37.8278 57.9847C36.8714 58.7698 35.9864 59.1552 35.2013 59.1552C34.4162 59.1552 33.8309 58.9126 33.474 58.4415C33.1172 57.9704 32.9173 57.428 32.9173 56.857C32.9173 56.2718 33.0173 55.7722 33.2171 55.3297C32.4034 56.386 31.4756 57.271 30.4335 58.0133C29.3772 58.7413 28.535 59.1124 27.8641 59.1124C27.1932 59.1124 26.6651 58.9126 26.2368 58.5129C25.6944 58.0133 25.4375 57.3281 25.4375 56.4431C25.4375 55.5581 25.6373 54.673 26.037 53.7737C26.4367 52.8887 26.9506 52.0608 27.5929 51.3328C28.2353 50.5905 28.949 49.9196 29.7198 49.3201C31.3328 48.0496 32.8317 47.4216 34.202 47.4216C34.7302 47.4216 35.1584 47.5072 35.4867 47.6785C35.8151 47.8498 36.0292 48.0782 36.1148 48.3351C36.3432 47.9783 36.5431 47.7642 36.7144 47.6642C36.8428 47.55 37.0855 47.5072 37.3995 47.5072ZM35.4582 49.1345C33.7881 49.1345 32.0608 50.0624 30.2765 51.918C29.6484 52.5889 29.0632 53.3741 28.5208 54.3019C27.9783 55.2297 27.7214 55.8578 27.7214 56.2004C27.7214 56.543 27.8213 56.7143 28.0212 56.7143C28.2924 56.7143 29.0489 56.1719 30.3051 55.1013C31.5612 54.0307 32.3892 53.2313 32.7889 52.7174C33.2456 52.1464 34.1307 50.9474 35.4582 49.1345Z" fill="#292F36"/>
<path d="M48.505 39.7703L49.1045 39.913C49.1901 39.913 49.2758 39.9558 49.3329 40.0415C49.4043 40.1271 49.4328 40.2128 49.4328 40.2841C49.4328 40.3555 49.3329 40.5696 49.1188 40.9122C48.9047 41.2548 48.6763 41.6402 48.3908 42.0685C48.1053 42.4967 47.9625 42.7394 47.9483 42.7822C48.7048 42.7251 49.2472 42.6965 49.5613 42.6965C49.8753 42.6965 50.0894 42.7251 50.2179 42.7679C50.3321 42.8107 50.4748 42.9392 50.6176 43.1391C50.7746 43.3389 50.9031 43.4959 51.0316 43.5958C51.16 43.6958 51.2171 43.8528 51.2171 44.0526C51.2171 44.2525 51.0887 44.438 50.846 44.5665C50.6033 44.7093 50.3321 44.7949 50.0466 44.8235C47.777 45.0518 46.5351 45.166 46.3067 45.1803C45.5216 46.3937 44.4082 48.2779 42.995 50.833C41.5818 53.3882 40.8253 55.0012 40.7396 55.6435C40.6968 55.9433 40.6825 56.1717 40.6825 56.3573C40.6825 56.7427 40.8824 56.9283 41.2821 56.9283C41.6817 56.9283 42.1242 56.7712 42.6096 56.4715C43.0949 56.1574 43.5517 55.8291 43.9514 55.4723C45.0505 54.5016 45.6358 54.002 45.7072 54.002C45.9641 54.002 46.0926 54.4445 46.0926 55.3152C46.0926 55.7863 45.8785 56.2145 45.4359 56.5999C44.451 57.4421 43.6231 58.0845 42.9522 58.5127C42.2813 58.941 41.6104 59.1551 40.9252 59.1551C40.7824 59.1551 40.6397 59.1408 40.5112 59.1123C39.7261 58.9695 39.1551 58.684 38.7983 58.2558C38.4271 57.8276 38.2559 57.2566 38.2559 56.5428C38.2559 55.8291 38.47 54.9441 38.8982 53.9163C39.3264 52.8886 39.8546 51.7894 40.497 50.6332C41.5533 48.7347 42.6096 46.9646 43.6516 45.3088L43.0949 45.3802C41.9672 45.5086 41.3106 45.5657 41.125 45.5657H40.9966C40.7111 45.5657 40.4399 45.5086 40.1829 45.3944C39.926 45.2802 39.7832 45.1375 39.7832 44.9805C39.7832 44.8092 39.8546 44.6522 39.9974 44.4951C40.1401 44.3381 40.2257 44.2096 40.2543 44.124C40.3257 43.9099 40.5826 43.6672 41.0251 43.4103C41.4676 43.1533 41.7959 43.0106 42.0243 42.9963C42.2527 42.982 42.4668 42.9678 42.681 42.9535C42.8951 42.9392 43.1235 42.9392 43.3804 42.9249C43.6374 42.9107 43.8372 42.9107 43.9799 42.8964L45.2932 42.8393C46.1068 41.6117 46.6778 40.8123 46.9776 40.4697C47.2916 40.1129 47.4629 39.9273 47.5058 39.8987C47.5486 39.8702 47.6485 39.8416 47.8055 39.8416L48.505 39.7703Z" fill="#292F36"/>
<path d="M57.2834 54.0306C57.469 54.0306 57.5832 54.1734 57.626 54.459C57.6688 54.7445 57.6831 55.0299 57.6831 55.344C57.6831 55.658 57.6545 55.8579 57.5974 55.972C57.3119 56.5145 56.6982 57.1853 55.7418 57.9704C54.7854 58.7555 53.8718 59.1551 53.0153 59.1551C52.4872 59.1551 52.0018 58.9981 51.545 58.684C51.1025 58.37 50.8741 57.8133 50.8741 57.0282C50.8741 56.2431 51.0883 55.4581 51.5022 54.7015C49.0756 57.742 47.1913 59.2551 45.8067 59.2551C45.2642 59.2551 44.8217 59.0554 44.4792 58.67C44.1366 58.2845 43.9795 57.8847 43.9795 57.4564C43.9795 57.0425 44.0366 56.6144 44.1508 56.1719C44.265 55.7294 44.3935 55.3295 44.522 54.9727C44.6504 54.6158 44.8503 54.1876 45.1072 53.6737C45.3642 53.1598 45.564 52.7888 45.6782 52.5462C45.7924 52.3035 46.0065 51.9607 46.292 51.4897C46.5775 51.0186 46.9344 50.3763 47.3911 49.577C47.8479 48.7776 48.2191 48.1781 48.5188 47.7927C48.8186 47.4072 49.1041 47.2073 49.3896 47.2073C49.6751 47.2073 49.9177 47.3215 50.1319 47.5499C50.346 47.7783 50.4602 47.9782 50.4602 48.121C50.4602 48.2637 50.1319 48.9203 49.4752 50.091C47.5482 53.5882 46.5775 55.615 46.5775 56.2003C46.5775 56.343 46.6346 56.4144 46.7345 56.4144C47.2056 56.4144 48.3761 55.4011 50.2318 53.3741C52.0875 51.3471 53.1723 50.048 53.4721 49.4771C53.7719 48.9061 54.0431 48.4206 54.3286 48.0352C54.5998 47.6498 54.8139 47.4072 54.9567 47.3216C55.3706 47.0504 55.913 46.9077 56.584 46.8792C56.6981 46.8792 56.7695 46.8791 56.8266 46.8934C56.8837 46.9076 56.9551 46.9933 57.0265 47.136C57.0978 47.2788 57.1407 47.4072 57.1407 47.5072C57.055 47.7784 56.6696 48.5064 55.9701 49.6912C55.285 50.876 54.8996 51.5469 54.8282 51.6896C53.672 54.0735 53.101 55.6294 53.101 56.3431C53.101 56.7571 53.258 56.9569 53.572 56.9569C54.143 56.8855 54.8282 56.4287 55.6276 55.6007C55.9273 55.301 56.2128 54.9871 56.4983 54.673C56.7838 54.359 56.9694 54.1734 57.0265 54.1306C57.0978 54.0592 57.1835 54.0306 57.2834 54.0306Z" fill="#292F36"/>
<path d="M61.5235 50.6475C63.8217 48.0352 65.7916 46.722 67.4047 46.722C67.8043 46.722 68.1326 46.8362 68.3895 47.0788C68.6464 47.3215 68.7749 47.6213 68.7749 48.0067C68.7749 48.3921 68.5037 49.0202 67.9613 49.9195C67.4188 50.8045 66.9192 51.561 66.4624 52.1749C66.2198 52.4889 65.9486 52.6459 65.6346 52.6459C65.3348 52.6459 65.0922 52.5317 64.9209 52.3033C64.7496 52.0749 64.6639 51.818 64.6639 51.5182C64.6639 50.8473 65.0207 50.0765 65.7487 49.2343L65.7203 49.2058C65.3919 49.2343 64.6068 49.8767 63.3221 51.1043C62.0517 52.3461 60.9668 53.4596 60.0675 54.4302C59.1825 55.4152 58.2118 56.6 57.1555 58.0131C56.8558 58.4271 56.5988 58.6412 56.3847 58.6412C56.1706 58.6412 55.8994 58.5698 55.5568 58.4414C55.2142 58.3129 55 58.213 54.9286 58.1559C54.8572 58.0988 54.8145 57.9989 54.8145 57.8561C54.8145 57.7276 54.8572 57.5564 54.9286 57.3851C55 57.1995 55.1571 56.9425 55.3569 56.6142C55.5568 56.2859 55.8851 55.7435 56.3133 55.0012C56.7416 54.2589 57.3982 53.1313 58.2975 51.6324C59.1968 50.1336 59.7249 49.22 59.9104 48.906C60.2816 48.2636 60.5814 47.7926 60.8241 47.5071C61.2666 46.9504 62.0088 46.6792 63.0508 46.6792C63.2792 46.6792 63.4078 46.8219 63.4078 47.1217C63.4078 47.5785 62.9795 48.4492 62.1374 49.7054L61.5235 50.6475Z" fill="#292F36"/>
<path d="M77.2679 47.6785C77.2679 48.3209 77.011 48.8919 76.4828 49.3772C75.9547 49.8625 75.3694 50.1052 74.6985 50.1052C74.4844 50.1052 74.3417 50.0481 74.2703 49.9482C74.1989 49.8483 74.1703 49.7055 74.1703 49.5485C74.1703 49.3915 74.1846 49.2202 74.2275 49.0631C73.8706 49.1773 73.4852 49.3629 73.0569 49.6056C72.6287 49.8482 72.1005 50.2051 71.4725 50.6904C70.8444 51.1758 70.5304 51.5184 70.5304 51.761C70.5304 51.8324 70.6445 51.8752 70.8729 51.8752C71.1013 51.8752 71.4582 51.7896 71.9293 51.6326C72.4003 51.4755 72.7429 51.3899 72.9285 51.3899C73.114 51.3899 73.2425 51.4042 73.2996 51.4184C73.4281 51.4898 73.5566 51.6326 73.7136 51.861C73.8563 52.0894 73.9277 52.2749 73.9277 52.4034C73.9277 52.5319 73.7992 52.7032 73.5423 52.9173C73.2853 53.1314 72.9998 53.2884 72.6858 53.4026C72.3575 53.5168 72.1434 53.6025 72.0435 53.6595C69.9879 54.8158 68.9601 55.6009 68.9601 56.0291C68.9601 56.7857 69.6025 57.1711 70.9015 57.1711C71.7294 57.1711 72.5716 56.9141 73.3995 56.386C74.1133 55.9435 74.7556 55.4867 75.3266 55.0156C75.8976 54.5588 76.2544 54.2734 76.4115 54.1592C76.5685 54.045 76.6827 54.0021 76.7541 54.0021C77.011 54.0021 77.1395 54.2876 77.1395 54.8586C77.1395 55.4296 77.1109 55.8007 77.0395 55.972C76.9682 56.1576 76.7826 56.3717 76.4543 56.6429C74.3702 58.3416 72.386 59.1981 70.5304 59.1981C69.5311 59.1981 68.746 59.0553 68.1465 58.7841C67.0474 58.2845 66.5049 57.528 66.5049 56.5002C66.5049 55.1584 67.4328 54.1306 69.3027 53.4454C68.9316 53.2741 68.6889 53.0743 68.589 52.8031C68.4748 52.5461 68.432 52.1322 68.432 51.5612C68.432 50.9902 68.7032 50.3907 69.2314 49.7483C69.7595 49.106 70.4161 48.5778 71.187 48.1781C72.8999 47.2503 74.4416 46.7935 75.7834 46.7935C76.1117 46.7935 76.4257 46.8649 76.7683 47.0219C77.1109 47.1789 77.2679 47.393 77.2679 47.6785Z" fill="#292F36"/>
<path d="M110.585 37.7435H110.77C110.828 37.7435 110.87 37.7435 110.885 37.7578C110.899 37.772 110.913 37.7721 110.942 37.7863C110.97 37.7863 110.985 37.8006 111.013 37.8291C111.056 37.872 111.127 37.9148 111.213 37.9576C111.327 38.0433 111.384 38.1432 111.384 38.2574C111.384 38.3716 111.27 38.6142 111.042 38.9854C110.813 39.3565 110.228 40.2558 109.272 41.7118C107.088 45.052 105.132 48.1639 103.405 51.0188C100.421 55.9863 98.9087 58.4844 98.8802 58.5129C98.8516 58.5415 98.8374 58.57 98.8231 58.5986C98.8089 58.6557 98.7802 58.6842 98.7088 58.6842L98.509 58.6414L98.1094 58.7413L97.881 58.6985L97.6384 58.7413H97.5527L96.7391 58.8555C96.2537 58.8555 96.011 58.6842 96.011 58.3559C96.011 58.2132 96.0539 58.0419 96.1395 57.842C96.4393 57.1283 97.9667 54.5446 100.707 50.0624C98.9088 50.1052 97.1245 50.1338 95.3687 50.1338L92.2282 50.1195C91.7143 50.9474 91.0006 52.1179 90.1013 53.6453C88.16 56.9713 87.1323 58.6414 87.0038 58.6699C86.8754 58.6985 86.7754 58.727 86.6898 58.727C86.6041 58.727 86.5327 58.6842 86.4756 58.5843C86.4042 58.4987 86.3614 58.4415 86.3328 58.4415C86.3043 58.4415 86.2614 58.4558 86.1758 58.4986C86.1044 58.5415 85.9903 58.5557 85.8333 58.5557L85.4906 58.5415L85.3623 58.4558C85.348 58.4558 85.3337 58.4701 85.3194 58.4986C85.3052 58.5272 85.2622 58.5415 85.2051 58.5415C84.7912 58.5415 84.5771 58.3702 84.5771 58.0133C84.5771 57.7849 84.6627 57.4709 84.8197 57.0855C84.991 56.7001 85.2051 56.2861 85.4764 55.8436C85.7476 55.4011 86.4327 54.3305 87.5604 52.6604C88.6738 50.9902 89.2307 50.148 89.2307 50.1338C89.0451 50.1195 88.8309 50.1195 88.5882 50.1052C88.0886 50.1052 87.7461 50.0909 87.532 50.0481C86.9753 49.9482 86.5899 49.4914 86.39 48.6778C86.2758 48.2781 86.233 48.0211 86.2473 47.8927C86.2473 47.6357 86.3615 47.493 86.5899 47.493L86.9753 47.5929C87.1751 47.6072 87.6319 47.6215 88.3742 47.6643C89.1165 47.7071 89.6445 47.7214 89.9728 47.7214L90.8008 47.6928C92.0712 45.7087 93.5843 43.4533 95.3543 40.941C94.0696 41.9973 92.6423 42.5254 91.0721 42.5254C90.3298 42.5254 89.6873 42.3541 89.1592 41.9973C88.6167 41.6404 88.3598 41.1836 88.3598 40.6412C88.3598 40.0988 88.5597 39.6705 88.9736 39.3422C89.3876 39.0282 89.773 38.8712 90.1441 38.8712C90.5153 38.8712 90.7009 38.9283 90.7009 39.0425C90.7009 39.0853 90.6438 39.1281 90.5439 39.1709C90.444 39.228 90.3868 39.2709 90.3868 39.3137C90.3868 39.4707 90.5581 39.6134 90.9007 39.7276C91.2433 39.8418 91.6288 39.9132 92.057 39.9132C92.4852 39.9132 92.9991 39.7847 93.6272 39.5421C94.2553 39.2994 94.8976 38.9711 95.5685 38.5857C96.5107 38.0433 97.2528 37.5865 97.7953 37.2296C98.1093 37.0726 98.3949 37.0012 98.6804 37.0012C98.9659 37.0012 99.1515 37.0298 99.2799 37.1011C99.4084 37.1582 99.4939 37.2296 99.551 37.2867C99.6081 37.3438 99.6795 37.4295 99.7366 37.5294C99.808 37.6293 99.8651 37.715 99.9365 37.7578C99.9936 37.8149 100.036 37.872 100.036 37.9433C100.036 38.0147 99.9936 38.1146 99.9222 38.2717C99.8508 38.4144 99.4798 39.0139 98.8089 40.056C98.138 41.098 97.2672 42.4255 96.2109 44.0385C95.1546 45.6516 94.3838 46.8364 93.8984 47.6072C96.5107 47.6072 99.3227 47.5644 102.348 47.4644C106.031 41.6547 107.973 38.6142 108.172 38.3288C108.372 38.0433 108.558 37.8577 108.729 37.772C108.9 37.6864 109.1 37.6436 109.343 37.6436L110.585 37.7435Z" fill="#292F36"/>
<path d="M115.353 47.4786C115.652 47.4786 115.952 47.6071 116.252 47.8783C116.566 48.1495 116.709 48.5492 116.709 49.0916C116.709 49.634 116.523 50.3335 116.138 51.2042C115.752 52.0607 115.238 52.9457 114.567 53.845C113.911 54.7301 113.169 55.5723 112.383 56.3574C111.584 57.1425 110.728 57.7848 109.814 58.2844C108.886 58.784 108.058 59.041 107.302 59.041C106.545 59.041 105.946 58.7983 105.489 58.3272C105.032 57.8562 104.804 57.1995 104.804 56.3574C104.804 55.5152 105.018 54.573 105.432 53.5595C105.846 52.5318 106.374 51.6325 107.031 50.8474C107.687 50.0623 108.387 49.3628 109.157 48.7347C110.742 47.45 112.141 46.822 113.34 46.822C113.882 46.822 114.282 46.9504 114.553 47.2217C114.653 47.3073 114.696 47.3929 114.696 47.45V47.5357C114.853 47.4786 115.067 47.4786 115.353 47.4786ZM113.882 49.4199H113.782C113.44 49.4199 113.268 49.1773 113.268 48.6777C112.555 48.906 111.813 49.32 111.027 49.9053C110.242 50.4905 109.543 51.19 108.929 51.9893C107.673 53.5881 107.045 54.9442 107.031 56.0433C107.031 56.5857 107.23 56.857 107.63 56.857C108.03 56.857 108.629 56.5857 109.414 56.0719C110.199 55.558 110.985 54.8014 111.77 53.8165C112.541 52.8458 113.126 51.9893 113.511 51.2756C113.897 50.5619 114.096 50.0766 114.096 49.8053C114.082 49.5484 114.011 49.4199 113.882 49.4199Z" fill="#292F36"/>
<path d="M116.395 58.7125L115.681 58.684H115.424C115.324 58.6554 115.224 58.5983 115.11 58.5127C114.996 58.427 114.91 58.3557 114.853 58.3271C114.796 58.2986 114.767 58.2129 114.767 58.113C114.767 58.0131 114.81 57.8275 114.882 57.5848C116.78 53.4024 118.621 50.0479 120.406 47.5498C120.606 47.2786 120.92 47.0645 121.348 46.9217C121.776 46.779 122.204 46.7076 122.618 46.7076C122.861 46.7076 122.989 46.8932 122.989 47.2786C122.989 47.3928 122.947 47.5356 122.875 47.7069C122.804 47.8924 122.604 48.1779 122.29 48.5919C121.976 49.0058 121.605 49.4769 121.177 49.9908C120.748 50.5047 120.506 50.8187 120.449 50.9043C121.79 49.5197 122.989 48.492 124.074 47.8068C125.159 47.1359 125.93 46.7933 126.415 46.7933C126.901 46.7933 127.272 46.936 127.529 47.2072C127.786 47.4785 127.914 47.7782 127.914 48.0923C127.914 48.4063 127.886 48.6775 127.843 48.8774C127.8 49.0915 127.714 49.3056 127.6 49.534C127.486 49.7624 127.386 49.9622 127.3 50.1192C127.215 50.2763 127.072 50.4904 126.886 50.7473C126.687 51.0043 126.558 51.1898 126.487 51.2898C126.415 51.3897 126.258 51.5752 126.03 51.8465C125.802 52.1177 125.673 52.2747 125.659 52.3032C125.93 52.032 126.315 51.6323 126.801 51.0899C127.286 50.5475 127.7 50.105 128.043 49.7481C128.385 49.3912 128.799 48.9773 129.313 48.5205C129.827 48.0637 130.298 47.6926 130.726 47.4214C131.783 46.7647 132.853 46.4221 133.938 46.4221C134.309 46.4221 134.623 46.5363 134.88 46.779C135.137 47.0217 135.266 47.2929 135.266 47.6212C135.266 47.9495 134.866 48.7346 134.081 49.9622C133.296 51.1898 132.496 52.4317 131.711 53.6736C130.926 54.9155 130.526 55.7006 130.526 56.0289C130.526 56.4714 130.612 56.7426 130.769 56.8283C130.94 56.9139 131.14 56.9425 131.369 56.9282C131.597 56.9139 131.94 56.7569 132.354 56.4714C132.782 56.1859 133.153 55.9004 133.481 55.5864C134.024 55.1011 134.509 54.63 134.98 54.1732C135.08 54.0876 135.18 54.0447 135.308 54.0447C135.494 54.0447 135.608 54.1875 135.651 54.473C135.694 54.7585 135.708 55.044 135.708 55.358C135.708 55.672 135.68 55.8719 135.622 55.9861C135.337 56.5285 134.709 57.1994 133.752 57.9988C132.782 58.7839 131.854 59.1836 130.969 59.1836C130.855 59.1836 130.783 59.1836 130.741 59.1693C129.741 59.0694 129.042 58.7982 128.656 58.3414C128.271 57.8846 128.085 57.3422 128.085 56.7284C128.085 56.1146 128.3 55.3437 128.728 54.4587C129.156 53.5737 129.613 52.76 130.127 52.0463C130.641 51.3326 131.097 50.676 131.526 50.0907C131.954 49.5054 132.168 49.1914 132.168 49.1486C132.168 49.1058 132.125 49.0772 132.054 49.0772C131.754 49.0772 131.083 49.5625 130.027 50.5475C128.242 52.2176 126.701 53.8306 125.402 55.3723C125.059 55.7862 124.246 56.814 122.975 58.4841C122.832 58.684 122.59 58.7839 122.276 58.7839C121.962 58.7839 121.633 58.7268 121.291 58.5983C120.948 58.4698 120.777 58.3128 120.777 58.1273C120.777 58.0273 121.548 56.657 123.104 54.0162C124.66 51.3754 125.43 49.9337 125.43 49.7053C125.43 49.4626 125.288 49.3484 125.002 49.3484C124.717 49.3484 124.117 49.7767 123.218 50.6331C120.748 52.9884 118.836 55.3437 117.48 57.6705C117.394 57.8132 117.223 58.0273 116.966 58.3128C116.709 58.5983 116.48 58.7125 116.395 58.7125Z" fill="#292F36"/>
<path d="M144.701 47.6785C144.701 48.3209 144.444 48.8919 143.916 49.3772C143.388 49.8625 142.802 50.1052 142.132 50.1052C141.917 50.1052 141.775 50.0481 141.703 49.9482C141.632 49.8483 141.603 49.7055 141.603 49.5485C141.603 49.3915 141.618 49.2202 141.66 49.0631C141.304 49.1773 140.918 49.3629 140.49 49.6056C140.062 49.8482 139.534 50.2051 138.906 50.6904C138.277 51.1758 137.963 51.5184 137.963 51.761C137.963 51.8324 138.078 51.8752 138.306 51.8752C138.534 51.8752 138.891 51.7896 139.362 51.6326C139.833 51.4755 140.176 51.3899 140.362 51.3899C140.547 51.3899 140.676 51.4042 140.733 51.4184C140.861 51.4898 140.99 51.6326 141.147 51.861C141.289 52.0894 141.361 52.2749 141.361 52.4034C141.361 52.5319 141.232 52.7032 140.975 52.9173C140.718 53.1314 140.433 53.2884 140.119 53.4026C139.791 53.5168 139.576 53.6025 139.476 53.6595C137.421 54.8158 136.393 55.6009 136.393 56.0291C136.393 56.7857 137.036 57.1711 138.335 57.1711C139.162 57.1711 140.005 56.9141 140.833 56.386C141.546 55.9435 142.189 55.4867 142.76 55.0156C143.331 54.5588 143.687 54.2734 143.845 54.1592C144.002 54.045 144.116 54.0021 144.187 54.0021C144.444 54.0021 144.573 54.2876 144.573 54.8586C144.573 55.4296 144.544 55.8007 144.473 55.972C144.401 56.1576 144.216 56.3717 143.887 56.6429C141.803 58.3416 139.819 59.1981 137.963 59.1981C136.964 59.1981 136.179 59.0553 135.58 58.7841C134.48 58.2845 133.938 57.528 133.938 56.5002C133.938 55.1584 134.866 54.1306 136.736 53.4454C136.365 53.2741 136.122 53.0743 136.022 52.8031C135.908 52.5461 135.865 52.1322 135.865 51.5612C135.865 50.9902 136.136 50.3907 136.664 49.7483C137.193 49.106 137.849 48.5778 138.62 48.1781C140.333 47.2503 141.875 46.7935 143.216 46.7935C143.545 46.7935 143.859 46.8649 144.201 47.0219C144.544 47.1789 144.701 47.393 144.701 47.6785Z" fill="#292F36"/>
<path d="M0 62.6665C3.7542 64.2367 7.57977 65.4501 11.4767 66.3779C15.3451 67.3486 19.2849 68.0338 23.2247 68.462C25.1946 68.7332 27.1787 68.7618 29.1343 68.9473C31.1185 68.9616 33.0884 69.1186 35.0583 69.0044L38.0131 68.9331C38.998 68.9188 39.983 68.7903 40.9679 68.7332C41.9529 68.6476 42.9378 68.6047 43.9085 68.4763L46.8347 68.0623C50.7602 67.6341 54.5715 66.7205 58.3686 65.6214C62.2084 64.565 65.8342 63.1661 69.674 61.7101C73.5995 60.2684 77.8533 59.3263 82.1642 59.7831C84.2911 60.0543 86.4323 60.7395 88.1738 61.9956C89.9296 63.2375 91.1857 65.0076 91.9851 66.8632C90.786 65.2074 89.2872 63.8513 87.56 63.0091C85.8328 62.1669 83.9343 61.8243 82.05 61.8814C78.2387 61.9385 74.4845 63.209 70.9587 64.8077C67.3758 66.5778 63.4931 68.1765 59.5819 69.504C55.6421 70.7745 51.5739 71.788 47.4485 72.3018C39.2407 73.3867 30.833 73.401 22.7251 71.7594C18.6568 71.0171 14.6885 69.8609 10.8486 68.3906C7.03733 66.8632 3.31169 65.0789 0 62.6665Z" fill="#292F36"/>
<path d="M136.507 38.8996C133.324 37.5435 130.084 36.4872 126.801 35.6593C123.532 34.7885 120.22 34.1747 116.894 33.7465C115.238 33.4895 113.554 33.4324 111.898 33.2326C110.228 33.1898 108.572 33.0185 106.902 33.0898C106.074 33.1041 105.232 33.1041 104.404 33.0898C103.576 33.0898 102.734 33.1755 101.906 33.204C101.078 33.2611 100.236 33.2754 99.4081 33.3611L96.9244 33.6608C93.5984 33.932 90.3724 34.6172 87.1463 35.4594C83.8775 36.2445 80.7799 37.3579 77.4825 38.4713C74.0994 39.599 70.4308 40.2842 66.748 39.7703C64.9351 39.4706 63.108 38.8282 61.6663 37.6862C60.196 36.5586 59.1968 35.0169 58.583 33.4039C59.5965 34.8171 60.8526 35.9733 62.2944 36.687C63.7361 37.4008 65.3205 37.7005 66.905 37.6862C70.1025 37.6862 73.2715 36.6585 76.2691 35.3738C79.3239 33.9178 82.6784 32.6331 86.0186 31.5768C89.3874 30.5633 92.8989 29.7924 96.4105 29.4213C103.419 28.679 110.585 28.8503 117.451 30.4776C120.891 31.2056 124.246 32.319 127.457 33.6894C130.683 35.0883 133.795 36.7156 136.507 38.8996Z" fill="#292F36"/>
</g>
</svg>
