<svg width="103" height="103" viewBox="0 0 103 103" fill="none" xmlns="http://www.w3.org/2000/svg">
<g clip-path="url(#clip0_9572_318)">
<mask id="mask0_9572_318" style="mask-type:luminance" maskUnits="userSpaceOnUse" x="0" y="0" width="103" height="103">
<path d="M103 0H0V103H103V0Z" fill="white"/>
</mask>
<g mask="url(#mask0_9572_318)">
<path d="M51.1599 102.32C22.9535 102.32 0 79.3664 0 51.1599C0 22.9535 22.9535 0 51.1599 0C79.3664 0 102.32 22.9535 102.32 51.1599C102.32 79.3664 79.3664 102.32 51.1599 102.32ZM51.1599 1.42745C23.7386 1.42745 1.42745 23.7386 1.42745 51.1599C1.42745 78.5813 23.7386 100.892 51.1599 100.892C78.5813 100.892 100.892 78.5813 100.892 51.1599C100.892 23.7386 78.5813 1.42745 51.1599 1.42745Z" fill="#292F36"/>
<path d="M58.3547 5.83827C58.6973 5.86682 58.9971 5.88109 59.2398 5.88109L59.2112 6.10949C58.8115 6.16658 58.4689 6.46635 58.1977 7.03733L54.8004 13.832L54.7005 13.8177L54.6148 13.8035L52.4594 6.22368C52.3166 5.72407 52.0739 5.45286 51.7314 5.41003L51.7599 5.18164C52.0739 5.23874 52.4879 5.28156 53.0018 5.33866C53.6727 5.39576 54.1723 5.43858 54.5006 5.43858L54.4721 5.66697C54.1723 5.6527 53.9582 5.66697 53.8297 5.7098C53.7012 5.75262 53.6299 5.86682 53.6156 6.00956C53.6013 6.13803 53.6299 6.3236 53.7012 6.56627L55.2857 12.3617L57.641 7.62259C57.8409 7.23717 57.9408 6.92313 57.9693 6.69474C57.9979 6.45207 57.9265 6.26651 57.7695 6.13803C57.6125 6.00956 57.3555 5.93819 57.0129 5.89537L57.0415 5.66697C57.4554 5.73835 57.898 5.79545 58.3547 5.83827Z" fill="#292F36"/>
<path d="M67.9468 8.85022C67.8041 8.85022 67.6899 8.90731 67.6043 9.02151C67.5186 9.13571 67.4187 9.32128 67.3188 9.59249L65.2775 15.0168C65.1776 15.288 65.1205 15.5021 65.1205 15.6449C65.1205 15.7876 65.1633 15.9018 65.2632 15.9874C65.3632 16.0731 65.5487 16.173 65.8057 16.2872L65.72 16.5013C65.3917 16.3586 64.9349 16.173 64.3497 15.9446C63.7216 15.702 63.2505 15.5449 62.9365 15.445L63.0221 15.2309C63.2933 15.3165 63.4932 15.3594 63.6217 15.3594C63.7501 15.3594 63.8786 15.3023 63.9642 15.1881C64.0499 15.0739 64.1498 14.8883 64.2497 14.6171L66.291 9.1928C66.3909 8.92159 66.448 8.70747 66.448 8.56473C66.448 8.42198 66.4052 8.30778 66.3053 8.22214C66.2053 8.13649 66.0198 8.03657 65.7628 7.92237L65.8485 7.70825C66.1483 7.83672 66.605 8.02229 67.2331 8.26496C67.8184 8.49335 68.2894 8.65037 68.632 8.75029L68.5464 8.96441C68.2894 8.87877 68.0896 8.83594 67.9468 8.85022Z" fill="#292F36"/>
<path d="M80.6505 16.4014C80.5078 16.3729 80.365 16.4157 80.2366 16.5014C80.1081 16.587 79.9511 16.7583 79.7798 17.001L75.6402 22.6109L75.4261 22.4538L75.9828 13.4323L72.3142 18.3999C72.1429 18.6425 72.0287 18.8424 71.9716 18.9994C71.9145 19.1564 71.9431 19.2992 72.0144 19.4419C72.0858 19.5847 72.2571 19.7417 72.4998 19.9415L72.357 20.1271C72.1429 19.9415 71.8289 19.6989 71.4149 19.3848C71.0438 19.1136 70.744 18.8995 70.5156 18.771L70.6584 18.5854C70.8867 18.7425 71.0723 18.8281 71.2151 18.8424C71.3578 18.8709 71.5006 18.8281 71.629 18.7425C71.7575 18.6425 71.9145 18.4855 72.0858 18.2429L75.4546 13.675C75.6259 13.4323 75.7401 13.2468 75.7829 13.1183C75.8257 12.9898 75.8115 12.8614 75.7401 12.7472C75.6687 12.633 75.526 12.4902 75.2976 12.3046L75.4403 12.1191C75.6259 12.2904 75.9114 12.5188 76.2968 12.79C76.5823 13.0041 76.825 13.1754 77.0533 13.3039L76.5966 20.8694L79.5657 16.844C79.737 16.6013 79.8654 16.4014 79.9083 16.2444C79.9511 16.0874 79.9368 15.9447 79.8654 15.8019C79.7941 15.6592 79.6228 15.4879 79.3801 15.3023L79.5228 15.1167C79.737 15.3023 80.051 15.545 80.465 15.859C80.8361 16.1302 81.1359 16.3443 81.3643 16.4728L81.2215 16.6584C80.9788 16.5156 80.7933 16.4157 80.6505 16.4014Z" fill="#292F36"/>
<path d="M85.4328 22.8393C85.804 22.5681 86.1894 22.2683 86.6033 21.8972C86.9602 22.4396 87.5883 23.3389 88.4876 24.6094C89.3869 25.8655 90.0292 26.7505 90.4147 27.2644C89.9293 27.5499 89.5154 27.8069 89.1442 28.0638C88.8302 28.2922 88.5732 28.492 88.3877 28.649L88.2307 28.4349C88.6874 28.0352 89.0015 27.7069 89.187 27.4643C89.3726 27.2216 89.444 26.9647 89.4297 26.6934C89.4154 26.4222 89.2441 26.0939 88.9729 25.6942L88.6018 25.1803L83.1917 29.0345C82.9348 29.22 82.7492 29.3913 82.6636 29.5198C82.5779 29.6483 82.5494 29.8053 82.6065 29.9766C82.6493 30.1336 82.7778 30.362 82.9633 30.6475L82.7778 30.7902C82.5637 30.4476 82.2353 29.9623 81.8071 29.3771C81.3503 28.7347 81.0077 28.2779 80.7793 27.9924L80.9649 27.8497C81.179 28.1209 81.3503 28.3065 81.4931 28.4064C81.6358 28.5063 81.7786 28.5349 81.9356 28.492C82.0926 28.4492 82.3067 28.335 82.5637 28.1494L87.9737 24.2953L87.6026 23.7814C87.3171 23.3817 87.0601 23.1391 86.8175 23.0249C86.5748 22.9107 86.3036 22.8964 86.0181 22.9963C85.7326 23.0963 85.3186 23.2818 84.7905 23.5816L84.6335 23.3675C84.8476 23.2533 85.1045 23.082 85.4328 22.8393Z" fill="#292F36"/>
<path d="M88.1736 42.6523L87.9452 42.7236C87.8596 42.4096 87.7454 42.0099 87.5741 41.5246C87.36 40.8965 87.1887 40.4254 87.0602 40.1114L87.2886 40.04C87.3885 40.3112 87.5027 40.5111 87.5884 40.611C87.6883 40.7109 87.8168 40.7395 87.9595 40.6824C88.088 40.6395 88.245 40.5396 88.4306 40.3826L90.015 39.0836L89.1157 36.4143L87.7882 36.3572C87.36 36.3286 87.0317 36.3572 86.8033 36.4428C86.5749 36.5285 86.4321 36.6569 86.375 36.8425C86.3322 37.0281 86.3608 37.2993 86.4607 37.6276L86.2323 37.699C86.1181 37.2708 85.9753 36.8425 85.8326 36.4143C85.7184 36.086 85.6185 35.8148 85.5186 35.6006L85.7469 35.5293C85.9468 35.8718 86.375 36.0574 87.0031 36.0717L94.5972 36.4143L94.6543 36.5856L88.6019 41.6245C88.2307 41.9813 88.088 42.3097 88.1736 42.6523ZM93.1269 36.5856L89.387 36.4286L90.2292 38.9409L93.1269 36.5856Z" fill="#292F36"/>
<path d="M89.2162 53.5724C89.3589 53.5153 89.4303 53.4439 89.4303 53.344C89.4303 53.2869 89.416 53.2441 89.3875 53.2013C89.3589 53.1584 89.3018 53.0728 89.2162 52.9586C89.0021 52.6874 88.845 52.4019 88.7308 52.1164C88.6166 51.8309 88.5595 51.5026 88.5595 51.1457C88.5453 50.3464 88.7023 49.6612 89.0163 49.0759C89.3446 48.4907 89.8014 48.0481 90.4295 47.7341C91.0433 47.4201 91.7856 47.263 92.6563 47.2488C93.5556 47.2345 94.3407 47.3772 95.0116 47.6913C95.6825 48.0053 96.2107 48.4336 96.5818 49.0045C96.953 49.5755 97.1528 50.2179 97.1528 50.9316C97.1528 51.2456 97.1243 51.5311 97.0672 51.7738C97.0101 52.0165 96.9244 52.2306 96.8245 52.4162C96.7246 52.6017 96.5961 52.8158 96.4248 53.0442C96.3534 53.1442 96.3106 53.2298 96.3106 53.2869C96.3106 53.4297 96.5533 53.5296 97.0243 53.5724V53.8436C96.5247 53.8151 95.6254 53.8151 94.3407 53.8436V53.5724C94.7547 53.501 95.0973 53.4154 95.3685 53.3297C95.6397 53.2441 95.8681 53.1156 96.068 52.9586C96.3392 52.7302 96.5676 52.4304 96.7246 52.0593C96.8816 51.6882 96.953 51.317 96.953 50.9173C96.9387 50.4034 96.7674 49.9609 96.4248 49.5755C96.0822 49.1901 95.5969 48.9046 94.9831 48.6905C94.355 48.4907 93.6413 48.3907 92.8133 48.405C91.8712 48.4193 91.1147 48.5335 90.5152 48.7476C89.9156 48.9617 89.4874 49.2758 89.2019 49.6897C88.9164 50.1037 88.7879 50.6318 88.8022 51.2742C88.8165 51.7453 88.945 52.1449 89.1876 52.4875C89.2875 52.6303 89.3732 52.7159 89.4731 52.7587C89.5588 52.8016 89.6872 52.8158 89.8442 52.8158L90.9719 52.8016C91.3003 52.8016 91.5286 52.7587 91.6857 52.7016C91.8284 52.6445 91.9426 52.5304 91.9854 52.3591C92.0425 52.202 92.0711 51.9451 92.0711 51.6025H92.2995C92.2852 51.9879 92.2709 52.5304 92.2852 53.2584C92.2995 53.8008 92.3137 54.2147 92.3423 54.4717H92.1139C92.0996 54.2861 92.0568 54.1577 92.014 54.0863C91.9712 54.0149 91.8712 53.9578 91.7428 53.9293C91.6143 53.9007 91.4002 53.8864 91.1004 53.9007L88.7879 53.9435V53.7151C88.9164 53.658 89.0734 53.6295 89.2162 53.5724Z" fill="#292F36"/>
<path d="M87.5165 65.72C87.1026 65.5915 86.6172 65.463 86.0605 65.3488C86.2461 64.8492 86.5173 64.007 86.9027 62.8079C87.3595 61.3805 87.6878 60.2956 87.8877 59.5676L88.1161 59.639C88.0447 59.9102 88.0162 60.1101 88.0162 60.2528C88.0305 60.3955 88.0876 60.4955 88.2018 60.5811C88.316 60.6668 88.5158 60.7524 88.787 60.8381L94.3112 62.5796C94.5967 62.6652 94.7966 62.708 94.9393 62.708C95.082 62.708 95.1963 62.6509 95.282 62.5367C95.3676 62.4225 95.4532 62.237 95.5531 61.98L95.7815 62.0514C95.5245 62.7794 95.1821 63.85 94.7253 65.2774C94.3827 66.3623 94.1399 67.1474 94.0257 67.6185C93.5547 67.4186 93.1265 67.2473 92.7268 67.1331C92.4413 67.0475 92.1987 66.9761 92.0274 66.9476L92.113 66.6906C92.6126 66.7905 92.9981 66.8334 93.255 66.8334C93.5119 66.8334 93.726 66.7477 93.8973 66.5764C94.0685 66.4194 94.2114 66.1339 94.3399 65.7485L94.6254 64.8207C94.711 64.5494 94.7537 64.3496 94.7395 64.2211C94.7252 64.0927 94.6825 63.9785 94.5683 63.8928C94.4541 63.8072 94.2684 63.7215 93.9829 63.6359L91.3565 62.8079L91.1281 63.5502C91.0139 63.9214 91.0424 64.2069 91.228 64.4067C91.4136 64.6065 91.6134 64.7493 91.8418 64.8492C92.0702 64.9491 92.213 65.0205 92.2701 65.049L92.1843 65.306C91.8274 65.1632 91.4849 65.0348 91.1423 64.9349L90.6142 64.7778C90.2431 64.6636 89.7005 64.5066 89.0154 64.3496L89.1011 64.0927C89.1582 64.1069 89.3438 64.1355 89.6578 64.2069C89.9719 64.2639 90.2431 64.2354 90.4572 64.1212C90.6713 64.007 90.814 63.7929 90.9139 63.4931L91.1423 62.7508L88.4587 61.9087C88.1732 61.823 87.9734 61.7802 87.8307 61.7802C87.6879 61.7802 87.5736 61.8373 87.5023 61.9515C87.4166 62.0657 87.331 62.2512 87.2453 62.5225L86.9884 63.3361C86.8456 63.8072 86.7885 64.1783 86.8456 64.4495C86.8885 64.735 87.0312 64.9634 87.2739 65.1632C87.5165 65.3488 87.8878 65.5629 88.3874 65.7913L88.3017 66.0483C88.1304 65.9198 87.8591 65.8342 87.5165 65.72Z" fill="#292F36"/>
<path d="M83.4494 83.2348C83.5065 83.1064 83.4923 82.9779 83.4352 82.8494C83.3781 82.7209 83.2353 82.5639 83.0212 82.3498L78.8245 78.3387C78.6104 78.1388 78.4391 78.0104 78.3106 77.9533C78.1821 77.8962 78.0537 77.8962 77.9252 77.9533C77.7967 78.0104 77.6397 78.1388 77.4399 78.3387L77.2686 78.1816C77.5398 77.939 77.8824 77.5821 78.3249 77.1396C78.7817 76.6543 79.1243 76.2831 79.3384 76.0405L79.5097 76.1975C79.3241 76.4116 79.2099 76.5829 79.1528 76.6971C79.0957 76.8256 79.11 76.954 79.1671 77.0825C79.2242 77.211 79.3669 77.368 79.581 77.5821L83.7778 81.5933C83.9919 81.7931 84.1632 81.9216 84.2916 81.9787C84.4201 82.0358 84.5486 82.0358 84.677 81.9787C84.8055 81.9216 84.9625 81.7931 85.1624 81.5933L85.3337 81.7503C85.091 81.9644 84.7341 82.3213 84.2774 82.8066C83.8349 83.2634 83.5065 83.6345 83.2781 83.9057L83.1069 83.7487C83.2781 83.5346 83.3923 83.3633 83.4494 83.2348Z" fill="#292F36"/>
<path d="M71.5579 91.9422C71.6435 91.8138 71.6578 91.6853 71.6292 91.5283C71.6007 91.3713 71.5008 91.1714 71.3437 90.9002L67.8037 84.8906L68.032 84.7479L76.1114 88.7876L72.9853 83.4774C72.8283 83.2205 72.6998 83.0349 72.5714 82.935C72.4429 82.8351 72.3001 82.7923 72.1431 82.8065C71.9861 82.8208 71.772 82.9065 71.5008 83.0492L71.3723 82.8494C71.6292 82.7352 71.9718 82.5353 72.4143 82.2784C72.814 82.0357 73.1138 81.8501 73.3279 81.6931L73.4421 81.893C73.2137 82.0357 73.0567 82.1784 72.9853 82.3069C72.8997 82.4354 72.8854 82.5639 72.9139 82.7209C72.9425 82.8779 73.0424 83.0777 73.1994 83.349L76.0829 88.2451C76.2256 88.5021 76.3541 88.6734 76.4683 88.759C76.5825 88.8447 76.6967 88.8875 76.8394 88.8589C76.9679 88.8304 77.1677 88.759 77.4104 88.6305L77.5246 88.8304C77.2962 88.9446 76.9822 89.1159 76.5682 89.3585C76.2685 89.5298 76.0115 89.7011 75.7974 89.8439L69.017 86.4608L71.5579 90.7717C71.7149 91.0287 71.8433 91.2142 71.9718 91.3142C72.086 91.4141 72.2288 91.4569 72.4001 91.4426C72.5714 91.4283 72.7855 91.3427 73.0567 91.2L73.1709 91.3998C72.9139 91.514 72.5713 91.7138 72.1288 91.9708C71.7292 92.2134 71.4294 92.399 71.2153 92.556L71.1011 92.3562C71.3152 92.1992 71.4722 92.0564 71.5579 91.9422Z" fill="#292F36"/>
<path d="M63.7074 93.8123C63.8073 94.2549 63.9358 94.7402 64.1071 95.2541C63.4647 95.3683 62.3941 95.5967 60.881 95.9107C59.3679 96.239 58.3116 96.4817 57.6835 96.6387C57.6122 96.082 57.5408 95.5967 57.4409 95.1542C57.3552 94.7687 57.2838 94.4547 57.1982 94.2263L57.4551 94.1692C57.6407 94.7545 57.812 95.1684 57.969 95.4396C58.126 95.7109 58.3259 95.8822 58.5828 95.9678C58.8398 96.0534 59.2109 96.0392 59.682 95.9392L60.2958 95.8108L58.8969 89.3159C58.8255 89.0018 58.7541 88.7734 58.6542 88.645C58.5543 88.5165 58.4401 88.4308 58.2688 88.4166C58.0975 88.388 57.8406 88.4166 57.498 88.4737L57.4551 88.2453C57.8548 88.1882 58.4258 88.074 59.1395 87.917C59.8961 87.7457 60.4671 87.6172 60.8239 87.5173L60.8668 87.7457C60.5242 87.8313 60.2958 87.917 60.153 88.0026C60.0103 88.0883 59.9246 88.2167 59.8961 88.3737C59.8675 88.5308 59.8818 88.7734 59.9532 89.0875L61.3521 95.5824L61.9659 95.4539C62.437 95.354 62.7795 95.2112 62.9794 95.0257C63.1792 94.8401 63.2934 94.5974 63.322 94.2977C63.3505 93.9979 63.3362 93.5411 63.2649 92.9416L63.5218 92.8845C63.5646 93.1129 63.6217 93.4269 63.7074 93.8123Z" fill="#292F36"/>
<path d="M44.7646 89.8011C44.8074 89.3586 44.8217 88.859 44.8217 88.3022C45.3498 88.3736 46.2349 88.4593 47.491 88.5735C48.9756 88.7019 50.1033 88.8019 50.8741 88.8447L50.8598 89.0731C50.5743 89.0588 50.3745 89.0731 50.246 89.1159C50.1175 89.1587 50.0176 89.2301 49.9605 89.3586C49.9034 89.487 49.8606 89.7012 49.8321 89.9866L49.3182 95.7678C49.2896 96.0533 49.3039 96.2674 49.3324 96.4102C49.361 96.5529 49.4466 96.6528 49.5751 96.7099C49.7036 96.767 49.9034 96.8241 50.1746 96.8527L50.1604 97.0811C49.4038 96.9954 48.2761 96.8812 46.7916 96.7528C45.6496 96.6528 44.836 96.5958 44.3506 96.5672C44.4506 96.0676 44.5219 95.6108 44.5505 95.1968C44.579 94.8971 44.5933 94.6544 44.579 94.4688L44.8502 94.4974C44.8645 95.0113 44.8931 95.3824 44.9644 95.6394C45.0215 95.8963 45.15 96.0819 45.3498 96.2103C45.5354 96.3388 45.8495 96.4245 46.2491 96.453L47.2198 96.5386C47.5053 96.5672 47.7051 96.5529 47.8336 96.5244C47.9621 96.4958 48.062 96.4102 48.1191 96.2817C48.1762 96.1532 48.219 95.9391 48.2476 95.6536L48.4902 92.9129L47.7194 92.8415C47.334 92.813 47.0628 92.8986 46.9058 93.127C46.763 93.3554 46.6488 93.5838 46.606 93.8265C46.5489 94.0692 46.5204 94.2262 46.5061 94.2975L46.2349 94.269C46.292 93.8836 46.3348 93.5267 46.3776 93.1699L46.4204 92.6132C46.449 92.2135 46.4775 91.671 46.5061 90.9573L46.7773 90.9859C46.7773 91.043 46.7916 91.2285 46.7916 91.5568C46.8058 91.8852 46.8772 92.1421 47.0485 92.3134C47.2055 92.499 47.4482 92.5989 47.7622 92.6274L48.5331 92.6988L48.7757 89.901C48.8043 89.6155 48.79 89.4014 48.7615 89.2586C48.7329 89.1302 48.6473 89.0302 48.5188 88.9732C48.3903 88.9161 48.1905 88.8732 47.9193 88.8447L47.0628 88.7733C46.5775 88.7305 46.2063 88.759 45.9351 88.8732C45.6782 88.9731 45.4783 89.173 45.3356 89.4442C45.1928 89.7154 45.0786 90.1294 44.9644 90.6718L44.6932 90.6433C44.6932 90.4292 44.7218 90.1437 44.7646 89.8011Z" fill="#292F36"/>
<path d="M33.5305 84.5053C33.7446 84.4625 33.9872 84.5053 34.2442 84.6195C34.544 84.748 34.7438 84.9336 34.858 85.1762C34.9722 85.4332 34.9865 85.79 34.9151 86.2611L34.701 87.4316C34.6296 87.8456 34.5868 88.1596 34.5725 88.4023C34.5582 88.6307 34.6153 88.8448 34.7152 89.0304C34.8152 89.2159 35.0007 89.3587 35.272 89.4729L36.2997 89.9011L37.3418 87.4173C37.456 87.1461 37.5131 86.9463 37.5273 86.8035C37.5416 86.6608 37.4845 86.5466 37.3846 86.4467C37.2847 86.3468 37.1134 86.2468 36.8564 86.1326L36.9421 85.9185C37.2704 86.0755 37.7129 86.2754 38.2982 86.5181C38.912 86.775 39.383 86.9606 39.6971 87.0605L39.6114 87.2746C39.3402 87.1747 39.1404 87.1319 39.0119 87.1176C38.8691 87.1176 38.7549 87.1604 38.6693 87.2746C38.5694 87.3745 38.4695 87.5601 38.3553 87.8313L36.1142 93.1843C36 93.4555 35.9429 93.6553 35.9286 93.7981C35.9143 93.9408 35.9714 94.055 36.0713 94.1549C36.1713 94.2548 36.3425 94.3548 36.5995 94.4832L36.5138 94.6974C36.2141 94.5546 35.7858 94.3548 35.2149 94.1121C34.9294 93.9979 34.6296 93.8694 34.287 93.7267C33.9444 93.584 33.716 93.4983 33.5876 93.4412C33.0309 93.1985 32.5883 92.9273 32.26 92.599C31.9317 92.2707 31.7461 91.9281 31.6605 91.557C31.5749 91.1858 31.6177 90.829 31.7747 90.4721C31.8889 90.1866 32.0745 89.9297 32.3314 89.7013C32.5883 89.4729 32.9167 89.3016 33.3163 89.2159C33.716 89.1303 34.2014 89.1446 34.7295 89.273L34.6011 89.2017C34.3013 89.0161 34.0729 88.8305 33.9302 88.6307C33.7874 88.4451 33.6875 88.231 33.6589 88.0026C33.6161 87.7742 33.6304 87.4887 33.6875 87.1461L33.8873 85.9328C33.9301 85.6901 33.9587 85.5046 33.9587 85.3618C33.9587 85.2191 33.9444 85.1049 33.9016 85.0192C33.8588 84.9336 33.7874 84.8622 33.6875 84.8337C33.5733 84.7766 33.4591 84.7766 33.3592 84.8051C33.2592 84.8337 33.1165 84.905 32.9309 85.0049L32.8167 84.8194C33.0737 84.6624 33.3163 84.5482 33.5305 84.5053ZM34.2442 89.5871C33.9016 89.6299 33.6304 89.7584 33.4163 89.9725C33.2021 90.1866 33.0166 90.4721 32.8596 90.8432C32.6169 91.4285 32.5598 91.9424 32.7168 92.3563C32.8738 92.7703 33.2592 93.1129 33.9016 93.3841C34.13 93.484 34.3013 93.5269 34.444 93.5126C34.5725 93.5126 34.6867 93.4555 34.7866 93.3413C34.8865 93.2271 34.9865 93.0415 35.0864 92.7846L36.1998 90.1295L35.4718 89.8297C35.0007 89.6299 34.5868 89.5442 34.2442 89.5871Z" fill="#292F36"/>
<path d="M22.3961 86.4467C22.5246 86.4895 22.653 86.461 22.7672 86.3896C22.8814 86.3182 23.0385 86.1612 23.224 85.9328L26.8069 81.365C26.9925 81.1366 27.1067 80.951 27.1495 80.8226C27.1923 80.6941 27.1781 80.5656 27.1067 80.4514C27.0353 80.3372 26.8926 80.1802 26.6785 79.9946L26.8212 79.8091C27.0924 80.0517 27.4636 80.3658 27.9632 80.7512C28.4913 81.1651 28.891 81.4649 29.1622 81.6505L29.0195 81.836C28.7911 81.6648 28.6055 81.5648 28.4771 81.5363C28.3486 81.4935 28.2201 81.5077 28.1059 81.5934C27.9917 81.6647 27.8347 81.8218 27.6491 82.0502L24.0662 86.618C23.8807 86.8464 23.7665 87.032 23.7236 87.1604C23.6808 87.2889 23.6951 87.4174 23.7665 87.5316C23.8378 87.6458 23.9806 87.8028 24.1947 87.9884L24.0519 88.1739C23.8093 87.9598 23.4239 87.6458 22.8957 87.2175C22.3961 86.8321 21.9964 86.5324 21.7109 86.3325L21.8537 86.147C22.0963 86.304 22.2676 86.4039 22.3961 86.4467Z" fill="#292F36"/>
<path d="M13.1754 76.2832C13.1183 75.6409 13.261 74.9985 13.5893 74.3847C13.9319 73.7566 14.4458 73.1999 15.1595 72.6717C15.859 72.1721 16.5584 71.8438 17.2864 71.7154C18.0144 71.5869 18.6853 71.6297 19.3134 71.8724C19.9415 72.115 20.4697 72.529 20.8836 73.1143C21.3261 73.7138 21.5688 74.3419 21.6259 74.9842C21.683 75.6266 21.5402 76.2689 21.2119 76.8827C20.8693 77.5108 20.3555 78.0675 19.6417 78.5957C18.9423 79.0953 18.2428 79.4236 17.5148 79.5521C16.8011 79.6805 16.1159 79.6377 15.4878 79.3951C14.8598 79.1524 14.3316 78.7384 13.9176 78.1674C13.4751 77.5536 13.2325 76.9256 13.1754 76.2832ZM15.3165 78.8241C15.8162 78.924 16.3871 78.8812 17.0152 78.6813C17.6433 78.4815 18.2714 78.1532 18.928 77.6678C19.5846 77.1968 20.0985 76.6829 20.4554 76.1405C20.8265 75.598 21.0264 75.0556 21.0549 74.5417C21.0977 74.0278 20.9693 73.571 20.698 73.1856C20.3983 72.7859 20.0129 72.529 19.499 72.4291C18.9994 72.3292 18.4284 72.372 17.8003 72.5718C17.1722 72.7717 16.5442 73.1 15.8875 73.571C15.2309 74.0421 14.717 74.556 14.3602 75.1127C13.989 75.6551 13.7892 76.1833 13.7463 76.7114C13.7035 77.2253 13.832 77.6821 14.1032 78.0675C14.403 78.4672 14.8027 78.7242 15.3165 78.8241Z" fill="#292F36"/>
<path d="M14.2745 59.0965C14.4458 59.225 14.5742 59.4391 14.6599 59.7246C14.7598 60.0244 14.7455 60.3099 14.6313 60.5525C14.5171 60.8095 14.2459 61.0521 13.832 61.2948L12.7899 61.88C12.4331 62.0942 12.1618 62.2655 11.9763 62.4082C11.7907 62.551 11.6622 62.7223 11.5909 62.9221C11.5195 63.1219 11.5195 63.3503 11.6051 63.6358L11.9335 64.7064L14.5029 63.907C14.7884 63.8214 14.9739 63.7357 15.0881 63.6501C15.2023 63.5644 15.2594 63.4503 15.2737 63.3218C15.288 63.1933 15.2451 62.9792 15.1738 62.708L15.4022 62.6366C15.4878 62.9792 15.6163 63.4645 15.8161 64.0641C16.016 64.7064 16.173 65.1775 16.2872 65.4772L16.0588 65.5486C15.9589 65.2774 15.8732 65.0918 15.7876 64.9919C15.7019 64.892 15.5877 64.8206 15.445 64.8206C15.3022 64.8206 15.0881 64.8492 14.8169 64.9491L9.27839 66.662C8.9929 66.7477 8.80733 66.8333 8.69313 66.919C8.57894 67.0046 8.52184 67.1188 8.50756 67.2473C8.49329 67.39 8.53611 67.5899 8.60748 67.8611L8.37909 67.9325C8.30772 67.6184 8.17925 67.1616 7.99368 66.5621C7.90803 66.2766 7.79384 65.9483 7.67964 65.6057C7.56544 65.2631 7.4798 65.0204 7.43697 64.892C7.2514 64.3067 7.19431 63.7928 7.23713 63.3361C7.27995 62.8793 7.4227 62.5081 7.65109 62.2084C7.87948 61.9086 8.17925 61.7088 8.55039 61.5946C8.83588 61.5089 9.14992 61.4804 9.49251 61.5232C9.83509 61.566 10.1634 61.7088 10.506 61.9657C10.8486 62.2226 11.1341 62.5938 11.3767 63.0934L11.3625 62.9506C11.3196 62.5938 11.3054 62.3083 11.3625 62.0656C11.4196 61.823 11.5195 61.6231 11.6622 61.4518C11.8193 61.2805 12.0476 61.095 12.3474 60.9237L13.4037 60.2956C13.6178 60.1814 13.7891 60.0672 13.8891 59.9815C13.989 59.8959 14.0746 59.8102 14.1175 59.7246C14.1603 59.6389 14.1603 59.539 14.1317 59.4391C14.0889 59.3106 14.0318 59.225 13.9462 59.1679C13.8605 59.1108 13.7178 59.0394 13.5179 58.968L13.5893 58.7539C13.8748 58.8539 14.1175 58.968 14.2745 59.0965ZM10.8629 62.9221C10.6202 62.6937 10.3347 62.5652 10.0349 62.5367C9.73517 62.5081 9.39258 62.551 9.00717 62.6794C8.39337 62.865 7.9794 63.1648 7.75101 63.5502C7.52262 63.9356 7.52262 64.4637 7.72246 65.1061C7.79384 65.3345 7.87948 65.5058 7.96513 65.6057C8.05078 65.7056 8.17925 65.7627 8.32199 65.7627C8.46474 65.7627 8.67886 65.7199 8.9358 65.6485L11.6765 64.7921L11.4481 64.0355C11.3054 63.5216 11.1055 63.1505 10.8629 62.9221Z" fill="#292F36"/>
<path d="M13.1755 45.5502C13.7179 45.3075 14.0462 44.8507 14.189 44.1656C14.2318 43.9086 14.2318 43.6517 14.1604 43.409C14.0891 43.1663 13.9606 42.9522 13.7608 42.7667C13.5609 42.5811 13.2897 42.4526 12.9328 42.3955C12.6331 42.3384 12.3619 42.367 12.1049 42.4669C11.848 42.5668 11.591 42.7238 11.3484 42.938C11.1057 43.1521 10.8202 43.4376 10.5062 43.7944C10.1493 44.1941 9.8353 44.5224 9.56408 44.7508C9.29287 44.9935 8.9931 45.1648 8.66479 45.2933C8.33648 45.4217 7.96534 45.436 7.55138 45.3646C7.12314 45.279 6.76628 45.122 6.50933 44.865C6.25239 44.6081 6.06682 44.3083 5.98118 43.9514C5.89553 43.5946 5.89553 43.2234 5.9669 42.8238C6.00973 42.5811 6.06682 42.3955 6.1382 42.2242C6.20957 42.0529 6.28094 41.9245 6.36659 41.8245C6.45224 41.7246 6.53788 41.6104 6.65208 41.4962C6.79482 41.3392 6.8662 41.225 6.89475 41.1394C6.90902 41.068 6.88047 41.0109 6.8091 40.9538C6.73773 40.8967 6.60926 40.8539 6.43796 40.7968L6.48079 40.5398C6.9233 40.654 7.69412 40.8253 8.82181 41.0394L8.77899 41.2964C8.3793 41.2536 8.00816 41.2678 7.63702 41.3535C7.28016 41.4249 6.96612 41.5819 6.70918 41.8245C6.45224 42.0529 6.28094 42.3812 6.20957 42.7809C6.15247 43.0522 6.16675 43.2948 6.23812 43.5375C6.30949 43.7802 6.43796 43.9657 6.60926 44.1227C6.79483 44.2798 7.00894 44.3797 7.26588 44.4368C7.67985 44.5082 8.03671 44.4511 8.33648 44.2512C8.63624 44.0514 8.92173 43.7944 9.19295 43.4947C9.46416 43.1949 9.63546 42.9951 9.73538 42.8951C10.135 42.4669 10.4633 42.1386 10.7346 41.8959C11.0058 41.6532 11.3055 41.482 11.6339 41.3678C11.9622 41.2536 12.319 41.2393 12.7044 41.3107C13.1755 41.3963 13.5609 41.5819 13.8464 41.8531C14.1319 42.1386 14.3175 42.4669 14.4174 42.8666C14.5173 43.2663 14.5173 43.6945 14.4317 44.1513C14.3603 44.5224 14.2746 44.8079 14.1462 45.0363C14.032 45.2647 13.875 45.4645 13.7037 45.6501C13.5609 45.8071 13.4895 45.9213 13.461 46.007C13.4467 46.0784 13.4753 46.1355 13.5466 46.1926C13.618 46.2496 13.7465 46.3067 13.9178 46.3496L13.875 46.6065C13.461 46.4923 12.5474 46.3067 11.1342 46.0498L11.1771 45.7929C11.9764 45.8642 12.6331 45.7929 13.1755 45.5502Z" fill="#292F36"/>
<path d="M10.3489 33.5165C9.94918 33.3024 9.4924 33.1026 8.97852 32.9027C9.29256 32.346 9.82071 31.3754 10.5344 29.9907C11.2482 28.6204 11.7478 27.6497 12.019 27.0645C12.4901 27.3642 12.9183 27.6212 13.3037 27.821C13.6463 28.0066 13.9461 28.135 14.1744 28.235L14.046 28.4776C13.475 28.2492 13.0468 28.1065 12.747 28.0637C12.4472 28.0066 12.176 28.0637 11.9476 28.2064C11.7192 28.3492 11.4908 28.6347 11.2767 29.0629L10.9912 29.6339L16.8866 32.7029C17.1721 32.8599 17.4005 32.9313 17.5575 32.9456C17.7145 32.9598 17.8573 32.917 17.9857 32.8028C18.1142 32.6886 18.257 32.4745 18.4283 32.1747L18.6424 32.2889C18.4283 32.6458 18.157 33.1454 17.8145 33.802C17.4576 34.4872 17.2006 35.0154 17.0436 35.3437L16.8295 35.2295C16.9723 34.9154 17.0722 34.6728 17.0865 34.5158C17.115 34.3445 17.0722 34.2017 16.958 34.0733C16.8438 33.9448 16.6582 33.8163 16.3727 33.6593L10.4773 30.576L10.1776 31.1327C9.94918 31.5609 9.84925 31.9035 9.86353 32.1747C9.8778 32.446 9.99201 32.6886 10.2061 32.9027C10.4202 33.1169 10.7771 33.4023 11.291 33.7307L11.1625 33.9733C10.977 33.8591 10.6915 33.7021 10.3489 33.5165Z" fill="#292F36"/>
<path d="M20.4273 17.1153C20.6699 16.8726 20.8698 16.6442 21.0125 16.4729L21.1838 16.6442C21.0982 16.7727 21.0554 16.9582 21.0696 17.1724C21.0839 17.3865 21.141 17.6862 21.2552 18.0431L22.5542 21.9115L24.0673 23.4103C24.2814 23.6102 24.4384 23.7529 24.5669 23.81C24.6954 23.8671 24.8238 23.8671 24.9523 23.81C25.0808 23.7529 25.2378 23.6244 25.4519 23.4389L25.6232 23.6102C25.352 23.8528 24.9951 24.1954 24.5526 24.6379C24.0816 25.109 23.739 25.4801 23.5249 25.7228L23.3536 25.5515C23.5391 25.3374 23.6676 25.1804 23.7247 25.0519C23.7818 24.9234 23.7818 24.795 23.7104 24.6665C23.6533 24.538 23.5106 24.3667 23.3107 24.1669L22.0546 22.925L17.2869 21.5261C17.0014 21.4404 16.7873 21.4119 16.6445 21.4262C16.5018 21.4404 16.4019 21.4833 16.3305 21.5546L16.1592 21.3833C16.3876 21.1835 16.6445 20.9551 16.9015 20.6839C17.4296 20.1415 17.815 19.756 18.0292 19.4991L18.2005 19.6704C17.815 20.0558 17.7294 20.3556 17.9435 20.5697C18.0292 20.6553 18.1434 20.7124 18.3146 20.7695L22.3258 22.0114L21.2695 18.8567C21.1125 18.4 20.9554 18.0859 20.7841 17.9289C20.6271 17.7719 20.4558 17.7291 20.2703 17.7862C20.0847 17.8433 19.8706 17.986 19.6136 18.2287L19.4423 18.0574C19.7849 17.7433 20.099 17.4293 20.4273 17.1153Z" fill="#292F36"/>
<path d="M29.0628 11.3625C28.9771 11.4624 28.9343 11.5909 28.9628 11.7336C28.9914 11.8764 29.0628 12.0762 29.2055 12.3332L31.9605 17.4435C32.1032 17.7004 32.2174 17.8717 32.3316 17.9716C32.4316 18.0715 32.56 18.1001 32.6885 18.0858C32.817 18.0715 33.0168 17.9859 33.2595 17.8574L34.016 17.4435C34.4443 17.2151 34.744 16.9724 34.9011 16.7297C35.0581 16.4871 35.1152 16.2158 35.0723 15.8875C35.0295 15.5592 34.9011 15.1453 34.6727 14.6028L34.9153 14.4744C35.0152 14.7027 35.158 14.9882 35.3436 15.3308C35.5577 15.7162 35.8146 16.1445 36.1287 16.6155C35.6576 16.8439 34.8582 17.2579 33.7591 17.8574C32.4458 18.5711 31.4466 19.1136 30.79 19.499L30.6758 19.2991C30.9185 19.1564 31.0898 19.0279 31.1754 18.928C31.261 18.8281 31.3039 18.6996 31.2753 18.5569C31.2468 18.4141 31.1754 18.2143 31.0327 17.9573L28.2491 12.8471C28.1064 12.5901 27.9922 12.4188 27.878 12.3189C27.7781 12.219 27.6496 12.1904 27.5211 12.2047C27.3784 12.219 27.1928 12.2904 26.9359 12.4188L26.8359 12.2047C27.1357 12.0762 27.5782 11.8478 28.1635 11.5195C28.7202 11.2198 29.1484 10.9771 29.4482 10.7915L29.5624 10.9914C29.3197 11.1341 29.1627 11.2626 29.0628 11.3625Z" fill="#292F36"/>
<path d="M46.4487 12.2761C46.5344 12.7044 46.6629 13.1897 46.8199 13.7321C46.2917 13.8178 45.421 13.9748 44.1934 14.2175C42.7231 14.503 41.6239 14.7314 40.8674 14.9027L40.8246 14.6743C41.0958 14.6029 41.2956 14.5458 41.4098 14.4601C41.524 14.3888 41.5954 14.2746 41.6097 14.1461C41.6239 14.0034 41.6097 13.7892 41.5526 13.5038L40.4392 7.80817C40.3821 7.52268 40.325 7.32284 40.2393 7.19437C40.1537 7.0659 40.068 6.99452 39.9253 6.98025C39.7968 6.9517 39.5827 6.96597 39.3115 7.0088L39.2686 6.7804C40.0252 6.65193 41.1386 6.45209 42.5946 6.1666C43.7223 5.93821 44.5217 5.78119 44.9785 5.66699C45.0213 6.18087 45.0927 6.63766 45.164 7.03735C45.2211 7.33711 45.2782 7.5655 45.3353 7.7368L45.0784 7.7939C44.9214 7.30856 44.7786 6.9517 44.6501 6.72331C44.5217 6.49491 44.3361 6.35217 44.122 6.2808C43.8936 6.20942 43.5938 6.20942 43.1799 6.29507L42.2235 6.48064C41.9523 6.53774 41.7524 6.59484 41.6382 6.66621C41.524 6.73758 41.4526 6.8375 41.4241 6.98025C41.4098 7.12299 41.4241 7.33711 41.4812 7.6226L42.0094 10.3348L42.7659 10.1778C43.1513 10.1064 43.3797 9.93508 43.4654 9.67814C43.551 9.42119 43.5796 9.17853 43.5653 8.93586C43.551 8.69319 43.5367 8.53617 43.5367 8.4648L43.7937 8.4077C43.8365 8.79311 43.8936 9.14998 43.965 9.49257L44.0792 10.035C44.1505 10.4205 44.279 10.9629 44.4646 11.6481L44.2076 11.7052C44.1934 11.6481 44.1363 11.4768 44.0363 11.1627C43.9364 10.8487 43.7937 10.6346 43.5796 10.5061C43.3654 10.3776 43.1228 10.3491 42.8087 10.4062L42.0522 10.5489L42.5946 13.3039C42.6517 13.5894 42.7088 13.7892 42.7802 13.9177C42.8515 14.0319 42.9515 14.1033 43.0942 14.1318C43.2227 14.1461 43.4368 14.1318 43.708 14.0747L44.5502 13.9034C45.0213 13.8035 45.3781 13.675 45.6065 13.5038C45.8349 13.3325 45.9634 13.0898 46.0205 12.79C46.0776 12.4903 46.0776 12.062 46.0348 11.5053L46.2917 11.4482C46.3345 11.6623 46.3774 11.9336 46.4487 12.2761Z" fill="#292F36"/>
<path d="M36.828 66.7904C36.1714 65.9054 35.6004 64.9347 35.1008 63.8641C34.6012 62.7935 34.2015 61.7087 33.9018 60.5953C33.2451 55.6991 33.2309 50.9457 33.8447 46.335C34.4585 41.7243 35.4577 37.185 36.828 32.7028C37.0564 32.2032 37.556 31.9605 38.3269 31.9605C39.0977 31.9605 39.8542 32.1318 40.6251 32.4744C41.3959 32.817 42.024 33.2738 42.5236 33.8448C43.0232 34.4158 43.1374 35.0153 42.8662 35.6291C42.4379 36.5427 42.024 37.7846 41.61 39.3262C41.1961 40.8821 40.7821 42.5951 40.411 44.465C40.0255 46.335 39.6972 48.3049 39.4117 50.3462C39.1262 52.3874 38.9121 54.3573 38.7837 56.2274C38.6552 58.0973 38.6266 59.7959 38.698 61.309C38.7694 62.8221 38.9978 64.0212 39.3832 64.8919C41.1818 62.4795 42.8234 59.9815 44.3222 57.3978C45.821 54.8141 47.2199 52.2018 48.5332 49.5325C49.8464 46.8774 51.1026 44.1938 52.2874 41.4674C53.4722 38.7552 54.6427 36.0716 55.7846 33.4308C56.3556 32.089 56.9266 30.6758 57.4833 29.1913C58.04 27.6925 58.768 26.422 59.6959 25.3514C60.0813 25.0088 60.381 24.8947 60.5809 25.0088C60.795 25.123 60.9377 25.3372 61.0091 25.6655C61.0805 25.9938 61.1233 26.3364 61.1233 26.6932C61.1233 27.0501 61.1233 27.3356 61.1233 27.5212C60.8521 29.2769 60.6237 31.0184 60.4381 32.7456C60.2526 34.4729 59.8386 36.1287 59.2391 37.7417C58.2399 40.2683 57.2264 42.7664 56.17 45.2644C55.1137 47.7482 53.986 50.2034 52.787 52.6158C51.5879 55.0282 50.2747 57.3692 48.89 59.6389C47.4911 61.9228 45.978 64.0925 44.3222 66.1481C43.0232 67.7896 41.7242 68.6604 40.4538 68.7603C39.1262 68.8745 37.9415 68.2036 36.828 66.7904Z" fill="#292F36"/>
<path d="M60.4667 60.3098C59.6959 59.2392 58.9394 58.1543 58.1971 57.0409C57.4548 55.9275 57.0837 54.7142 57.0837 53.3724C57.0837 51.8878 57.5119 50.4746 58.3684 49.1471C59.2249 47.8339 60.2099 46.7633 61.3233 45.9639C61.7801 45.6641 62.2511 45.4072 62.7221 45.2216C63.1932 45.036 63.7072 45.0503 64.2496 45.2787C64.478 45.3929 64.7207 45.4786 64.9633 45.5357C65.206 45.5928 65.4344 45.6641 65.62 45.7355C65.8055 45.8069 66.0195 45.9211 66.2479 46.0781C66.4763 46.2351 66.5905 46.435 66.5905 46.7062C66.5905 47.7768 66.6191 48.6475 66.6762 49.3184C66.7333 49.9893 66.819 50.5603 66.9332 51.0456C67.0474 51.531 67.1616 51.9449 67.2758 52.3018C67.39 52.6729 67.5041 53.0583 67.6183 53.4723C67.6897 53.8577 67.6754 54.186 67.5612 54.443C67.447 54.7142 67.1616 54.7427 66.7048 54.5572C65.8626 54.2574 65.2344 53.6436 64.8347 52.7157C64.4351 51.7879 64.1353 50.96 63.9497 50.1892C63.9069 50.0321 63.8214 49.7752 63.6643 49.3898C63.5073 49.0044 63.4216 48.7332 63.3788 48.5904C63.079 48.519 62.7079 48.619 62.294 48.9044C61.88 49.1899 61.4946 49.5896 61.1806 50.075C60.8523 50.5746 60.638 51.1455 60.5524 51.8022C60.4525 52.4588 60.581 53.1012 60.9236 53.7578C61.0806 53.9862 61.2948 54.2717 61.5803 54.5857C61.8657 54.914 62.1512 55.2423 62.4367 55.5849C62.7222 55.9275 63.0076 56.2701 63.2931 56.5841C63.5786 56.8982 63.8214 57.1694 64.0069 57.355C64.2353 57.5834 64.3922 57.7118 64.4636 57.7261C64.535 57.7404 64.7348 57.6976 65.0346 57.5834C65.42 57.3978 66.0054 57.1409 66.7905 56.8411C67.5756 56.5413 68.4034 56.2273 69.2599 55.9275C70.1163 55.6278 70.9443 55.3708 71.7294 55.1567C72.5145 54.9426 73.1141 54.8426 73.5423 54.8426C73.8135 54.8426 73.9991 54.9426 74.1133 55.1281C74.2275 55.2423 74.2131 55.3994 74.0561 55.5849C73.8991 55.7705 73.6993 55.9703 73.4567 56.1559C73.214 56.3415 72.9427 56.5128 72.6857 56.6698C72.4145 56.8268 72.2433 56.9125 72.172 56.9553C71.5153 57.3407 70.7016 57.7689 69.7024 58.2543C68.7032 58.7253 67.8468 59.1964 67.1188 59.6532C67.0474 59.7245 66.9046 59.8102 66.6904 59.8816C66.4763 59.9529 66.3193 60.0386 66.2051 60.11C66.6619 61.1377 66.9903 62.037 67.1759 62.7793C67.3614 63.5216 67.4327 64.2353 67.3756 64.9347C67.3185 65.6199 67.1758 66.3194 66.9474 67.0331C66.719 67.7468 66.405 68.5605 66.0339 69.474C65.4915 70.3591 64.949 71.2013 64.3923 72.0006C63.8356 72.8 63.2217 73.528 62.5223 74.1846C61.8371 74.8413 61.0806 75.3552 60.2813 75.7263C59.4819 76.1117 58.5969 76.2973 57.6405 76.2973C57.0981 76.2973 56.5841 76.2259 56.0845 76.0974C55.5849 75.969 55.171 75.6835 54.8284 75.2695C53.9434 74.3131 53.458 73.2711 53.3438 72.1434C53.2297 71.0157 53.3296 69.9023 53.6293 68.7889C53.8577 68.1037 54.1431 67.4756 54.4857 66.8904C55.3279 65.4344 56.2558 64.2067 57.2692 63.1933C58.297 62.194 59.3533 61.2234 60.4667 60.3098ZM62.4224 62.8935C61.9941 63.3217 61.4231 63.9213 60.6951 64.7064C59.9671 65.4915 59.2963 66.3479 58.654 67.2615C58.0259 68.1751 57.5119 69.0886 57.1122 69.9879C56.7125 70.8872 56.6126 71.6581 56.7982 72.3147C57.569 71.9721 58.3542 71.4011 59.1536 70.616C59.953 69.8309 60.6666 68.9744 61.2804 68.0323C61.8942 67.0902 62.3224 66.1624 62.5651 65.2488C62.8078 64.3209 62.7649 63.5358 62.4224 62.8935Z" fill="#292F36"/>
<path d="M51.1604 83.5488C33.303 83.5488 18.7715 69.0173 18.7715 51.1599C18.7715 33.3024 33.303 18.771 51.1604 18.771C69.0179 18.771 83.5493 33.3024 83.5493 51.1599C83.5493 69.0173 69.0179 83.5488 51.1604 83.5488ZM51.1604 20.1984C34.0881 20.1984 20.1989 34.0875 20.1989 51.1599C20.1989 68.2322 34.0881 82.1213 51.1604 82.1213C68.2328 82.1213 82.1219 68.2322 82.1219 51.1599C82.1219 34.0875 68.2328 20.1984 51.1604 20.1984Z" fill="#292F36"/>
</g>
</g>
<defs>
<clipPath id="clip0_9572_318">
<rect width="103" height="103" fill="white"/>
</clipPath>
</defs>
</svg>
